<?xml version="1.0" encoding="utf-8"?>
<!-- Generator: Adobe Illustrator 16.0.0, SVG Export Plug-In . SVG Version: 6.00 Build 0)  -->
<!DOCTYPE svg PUBLIC "-//W3C//DTD SVG 1.1//EN" "http://www.w3.org/Graphics/SVG/1.1/DTD/svg11.dtd">
<svg version="1.1" id="Layer_1" xmlns="http://www.w3.org/2000/svg" xmlns:xlink="http://www.w3.org/1999/xlink" x="0px" y="0px"
	 width="500px" height="500px" viewBox="0 0 500 500" enable-background="new 0 0 500 500" xml:space="preserve">
<g>
	<path fill="#F2634B" d="M279.594,148.036c-17.496-9.483-40.333-14.292-67.872-14.292c-9.955,0-13.644,2.283-14.957,3.642
		c-2.556,2.643-3.939,6.503-4.233,11.809c-0.386,6.934-0.582,15.159-0.582,24.447v168.104c0,7.061-0.066,13.231-0.199,18.347
		c-0.051,1.862-0.125,3.614-0.227,5.258c4.003,0.13,7.845,0.234,11.485,0.316c5.689,0.127,10.678,0.193,14.831,0.193h7.694
		c15.941,0,30.498-2.959,43.267-8.797c12.795-5.846,23.904-14.055,33.023-24.394c9.189-10.413,16.408-22.871,21.457-37.029
		c5.082-14.258,7.656-29.945,7.656-46.626c0-23.709-4.317-44.435-12.837-61.601C309.765,170.622,296.807,157.373,279.594,148.036z"
		/>
	<path fill="#F2634B" d="M462.498,25.242H37.501c-6.77,0-12.259,5.489-12.259,12.259v424.997c0,6.77,5.489,12.26,12.259,12.26
		h424.997c6.771,0,12.26-5.49,12.26-12.26V37.501C474.758,30.731,469.269,25.242,462.498,25.242z M374.561,305.335
		c-6.659,17.48-16.779,33.153-30.081,46.591c-13.278,13.422-29.997,24.212-49.69,32.064c-19.607,7.814-42.509,11.776-68.071,11.776
		H115.48v-27.554l7.066-0.369c10.367-0.543,14.083-3.027,15.376-4.458c2.493-2.76,3.907-6.925,4.206-12.379
		c0.384-7.048,0.58-15.209,0.58-24.253V156.28c0-5.398,0.136-10.646,0.406-15.598c0.089-1.689,0.181-3.324,0.271-4.905
		l-27.905,1.545V104.66l100.553-0.426c24.277,0,46.859,2.881,67.151,8.563c20.599,5.769,38.68,14.786,53.742,26.805
		c15.214,12.143,27.093,27.689,35.312,46.21c8.151,18.386,12.281,40.179,12.281,64.782
		C384.52,269.574,381.169,287.99,374.561,305.335z"/>
	<path fill="#FFFFFF" d="M336.927,139.601c-15.063-12.019-33.144-21.036-53.742-26.805c-20.292-5.682-42.874-8.563-67.151-8.563
		L115.48,104.66v32.663l27.905-1.545c-0.09,1.581-0.182,3.215-0.271,4.905c-0.271,4.952-0.406,10.2-0.406,15.598v170.474
		c0,9.044-0.196,17.205-0.58,24.253c-0.298,5.454-1.712,9.619-4.206,12.379c-1.293,1.431-5.009,3.915-15.376,4.458l-7.066,0.369
		v27.554h111.237c25.563,0,48.464-3.962,68.071-11.776c19.693-7.853,36.412-18.643,49.69-32.064
		c13.302-13.438,23.422-29.11,30.081-46.591c6.608-17.345,9.959-35.761,9.959-54.742c0-24.603-4.13-46.396-12.281-64.782
		C364.02,167.29,352.141,151.744,336.927,139.601z M323.281,295.641c-5.049,14.158-12.268,26.616-21.457,37.029
		c-9.119,10.339-20.229,18.548-33.023,24.394c-12.769,5.838-27.325,8.797-43.267,8.797h-7.694c-4.153,0-9.141-0.066-14.831-0.193
		c-3.64-0.082-7.482-0.187-11.485-0.316c0.102-1.644,0.176-3.396,0.227-5.258c0.133-5.115,0.199-11.286,0.199-18.347V173.643
		c0-9.288,0.196-17.513,0.582-24.447c0.294-5.306,1.677-9.167,4.233-11.809c1.313-1.359,5.002-3.642,14.957-3.642
		c27.539,0,50.375,4.809,67.872,14.292c17.213,9.337,30.171,22.586,38.507,39.378c8.52,17.166,12.837,37.892,12.837,61.601
		C330.938,265.695,328.363,281.383,323.281,295.641z"/>
</g>
</svg>
