<?xml version="1.0" encoding="utf-8"?>
<!-- Generator: Adobe Illustrator 16.0.0, SVG Export Plug-In . SVG Version: 6.00 Build 0)  -->
<!DOCTYPE svg PUBLIC "-//W3C//DTD SVG 1.1//EN" "http://www.w3.org/Graphics/SVG/1.1/DTD/svg11.dtd">
<svg version="1.1" id="Layer_1" xmlns="http://www.w3.org/2000/svg" xmlns:xlink="http://www.w3.org/1999/xlink" x="0px" y="0px"
	 width="400px" height="250px" viewBox="0 0 400 250" enable-background="new 0 0 400 250" xml:space="preserve">
<g>
	<g>
		<g>
			<path fill="#F6F6FB" d="M286.34,73.097c0.037,1.292,0.24,2.602,0.627,3.899c0.359,1.206,0.855,2.333,1.467,3.37l2.568-1.087
				c0.73,1.259,1.639,2.385,2.682,3.349l-1.607,2.316c0.939,0.886,2.01,1.666,3.201,2.311c0.463,0.252,0.936,0.475,1.41,0.673
				c0.125,0.055,0.252,0.103,0.377,0.152c0.539,0.208,1.084,0.38,1.633,0.523l1.057-2.612c0.158,0.043,0.316,0.084,0.477,0.122
				c0.18,0.043,0.359,0.082,0.541,0.118c1.057,0.207,2.143,0.297,3.238,0.262l0.5,2.769c1.291-0.036,2.6-0.241,3.896-0.627
				c1.205-0.359,2.332-0.853,3.371-1.467l-1.092-2.579c1.266-0.726,2.393-1.627,3.361-2.666l2.307,1.602
				c0.889-0.938,1.672-2.007,2.314-3.197c0.598-1.108,1.045-2.255,1.348-3.419l-2.592-1.05c0.375-1.373,0.549-2.811,0.498-4.268
				l2.752-0.495c-0.037-1.294-0.238-2.602-0.625-3.898c-0.359-1.206-0.857-2.334-1.467-3.371l-2.559,1.084
				c-0.729-1.266-1.637-2.395-2.68-3.363l1.594-2.298c-0.939-0.889-2.008-1.669-3.197-2.313c-1.107-0.6-2.256-1.046-3.42-1.348
				l-1.047,2.578c-1.375-0.376-2.814-0.553-4.275-0.504l-0.492-2.731c-1.291,0.036-2.6,0.238-3.896,0.625
				c-1.205,0.358-2.334,0.855-3.371,1.466l1.076,2.543c-1.271,0.729-2.402,1.638-3.375,2.685l-2.279-1.584
				c-0.887,0.938-1.668,2.009-2.313,3.2c-0.6,1.107-1.045,2.253-1.348,3.42l2.57,1.04c-0.373,1.376-0.541,2.816-0.488,4.277
				L286.34,73.097z M294.449,74.454c-1.25-4.742,1.436-9.708,6.09-11.255c5.137-1.71,10.639,1.268,12.016,6.503
				c1.248,4.741-1.438,9.706-6.09,11.254C301.328,82.665,295.826,79.689,294.449,74.454z"/>
			<g>
				<path fill="#F6F6FB" d="M304.863,66.698c0.467,0.114,0.889,0.277,1.266,0.489c0.379,0.212,0.699,0.45,0.971,0.713
					c0.268,0.264,0.48,0.541,0.635,0.831c0.156,0.289,0.236,0.569,0.248,0.838c0,0.092-0.033,0.173-0.102,0.24
					c-0.066,0.067-0.141,0.1-0.225,0.1h-2.031c-0.145,0-0.262-0.02-0.35-0.062s-0.178-0.103-0.271-0.186
					c-0.029-0.031-0.08-0.083-0.148-0.154c-0.066-0.074-0.16-0.148-0.285-0.226c-0.123-0.078-0.279-0.145-0.467-0.201
					c-0.184-0.058-0.412-0.086-0.682-0.086c-0.195,0-0.387,0.012-0.564,0.039c-0.184,0.025-0.344,0.067-0.482,0.123
					c-0.139,0.058-0.254,0.138-0.34,0.241c-0.088,0.103-0.135,0.233-0.135,0.388s0.051,0.284,0.148,0.388
					c0.098,0.103,0.264,0.198,0.498,0.287c0.232,0.087,0.539,0.172,0.922,0.255s0.857,0.182,1.428,0.294
					c0.568,0.114,1.064,0.26,1.488,0.435c0.422,0.177,0.779,0.396,1.063,0.66c0.285,0.264,0.498,0.573,0.637,0.93
					s0.209,0.779,0.209,1.265c0,0.435-0.084,0.833-0.248,1.195c-0.164,0.361-0.398,0.683-0.697,0.961
					c-0.299,0.28-0.664,0.511-1.086,0.699c-0.426,0.186-0.891,0.321-1.398,0.403v1.102c0,0.113-0.039,0.212-0.123,0.295
					c-0.082,0.082-0.182,0.123-0.293,0.123h-2.033c-0.113,0-0.213-0.042-0.295-0.123c-0.082-0.083-0.125-0.182-0.125-0.295V77.51
					c-0.494-0.114-0.943-0.276-1.342-0.487c-0.396-0.212-0.738-0.454-1.023-0.723c-0.283-0.269-0.504-0.559-0.658-0.876
					c-0.156-0.314-0.238-0.633-0.25-0.953c0-0.094,0.033-0.174,0.102-0.241c0.068-0.068,0.143-0.102,0.227-0.102h2.031
					c0.145,0,0.26,0.019,0.34,0.055c0.084,0.036,0.166,0.091,0.248,0.164c0.043,0.042,0.105,0.108,0.188,0.201
					c0.084,0.094,0.193,0.19,0.334,0.288s0.314,0.184,0.527,0.256c0.211,0.072,0.473,0.108,0.781,0.108
					c0.549,0,1.008-0.059,1.373-0.178c0.369-0.119,0.553-0.334,0.553-0.644c0-0.155-0.066-0.284-0.201-0.388
					c-0.137-0.103-0.338-0.198-0.605-0.287c-0.27-0.088-0.613-0.174-1.033-0.257c-0.416-0.082-0.912-0.186-1.48-0.309
					c-1.066-0.228-1.844-0.609-2.336-1.142c-0.49-0.531-0.736-1.243-0.736-2.132c0-0.363,0.068-0.712,0.203-1.048
					c0.133-0.336,0.328-0.644,0.582-0.923c0.252-0.278,0.563-0.522,0.93-0.728c0.365-0.208,0.783-0.367,1.248-0.482v-1.147
					c0-0.113,0.043-0.212,0.125-0.295s0.182-0.123,0.295-0.123h2.033c0.111,0,0.211,0.04,0.293,0.123
					c0.084,0.083,0.123,0.182,0.123,0.295V66.698z"/>
			</g>
		</g>
		<g>
			<path fill="#E6E7F4" d="M271.93,45.375c1.453-1.154,3.926-0.614,4.77-1.225c1.012-0.731,0.928-1.475,1.125-2.622
				c0.215-1.25,0.57-2.476,1.059-3.647c1.039-2.492,3.201-4.044,5.98-3.984c1.594,0.035,3.098,0.669,4.246,1.769
				c1.023,0.981,1.521,3.098,2.877,3.622c1.914,0.736,3.678-1.954,5.617-1.581c1.291,0.248,2.496,1.203,2.771,2.489
				c0.174,0.806-0.018,1.639-0.053,2.462c-0.033,0.823,0.154,1.751,0.842,2.207c0.307,0.202,0.678,0.284,1.041,0.308
				c0.941,0.063,1.863-0.229,2.791-0.402c0.928-0.171,1.951-0.207,2.74,0.307c1.041,0.676,1.324,1.977,1.803,3.034
				c0.512,1.13,1.375,2.155,2.455,2.781c2.523,1.462,5.766,0.147,7.947,2.33c-5.045,0-45.031,0-46.547,0
				c-1.514,0-3.404-1.572-3.4-4.008C269.996,48.103,270.449,46.549,271.93,45.375z"/>
		</g>
		<g>
			<path fill="#E6E7F4" d="M125.354,62.511c-3.125-0.559-5.767-0.911-7.198-3.746c-1.431-2.834-2.343-5.96-4.241-8.507
				c-3.31-4.442-9.896-6.67-15.185-3.92c-5.991,3.116-6.428,13.145-14.341,13.162c-1.725,0.004-3.383-0.656-5.1-0.835
				c-3.773-0.392-8.841,2.028-9.792,5.931c-0.255,1.048-1.514,5.79-4.824,5.79c-2.151,0-7.369-0.871-10.127,3.228
				c0,0,69.353,0,72.042,0s4.369-2.571,4.369-4.403C130.958,65.7,128.32,63.042,125.354,62.511z"/>
		</g>
		<g>
			
				<circle fill="none" stroke="#B9C0E2" stroke-linecap="round" stroke-linejoin="round" stroke-miterlimit="10" cx="149.309" cy="58.659" r="1.513"/>
			
				<circle fill="none" stroke="#B9C0E2" stroke-linecap="round" stroke-linejoin="round" stroke-miterlimit="10" cx="83.578" cy="45.517" r="1.514"/>
			
				<circle fill="none" stroke="#B9C0E2" stroke-linecap="round" stroke-linejoin="round" stroke-miterlimit="10" cx="25.79" cy="125.626" r="1.513"/>
			
				<circle fill="none" stroke="#B9C0E2" stroke-linecap="round" stroke-linejoin="round" stroke-miterlimit="10" cx="199.483" cy="60.844" r="1.513"/>
			<path fill="none" stroke="#B9C0E2" stroke-linecap="round" stroke-linejoin="round" stroke-miterlimit="10" d="M335.666,67.409
				c0.299,0.78-0.09,1.655-0.871,1.954c-0.781,0.3-1.656-0.091-1.953-0.871c-0.299-0.78,0.092-1.655,0.869-1.955
				C334.494,66.238,335.369,66.627,335.666,67.409z"/>
			
				<circle fill="none" stroke="#B9C0E2" stroke-linecap="round" stroke-linejoin="round" stroke-miterlimit="10" cx="374.128" cy="145.491" r="1.513"/>
			<g>
				
					<line fill="none" stroke="#B9C0E2" stroke-linecap="round" stroke-linejoin="round" stroke-miterlimit="10" x1="169.066" y1="36.414" x2="169.066" y2="39.375"/>
				
					<line fill="none" stroke="#B9C0E2" stroke-linecap="round" stroke-linejoin="round" stroke-miterlimit="10" x1="170.546" y1="37.894" x2="167.586" y2="37.894"/>
			</g>
			<g>
				
					<line fill="none" stroke="#B9C0E2" stroke-linecap="round" stroke-linejoin="round" stroke-miterlimit="10" x1="206.988" y1="32.503" x2="206.988" y2="35.463"/>
				
					<line fill="none" stroke="#B9C0E2" stroke-linecap="round" stroke-linejoin="round" stroke-miterlimit="10" x1="208.469" y1="33.983" x2="205.509" y2="33.983"/>
			</g>
			<g>
				
					<line fill="none" stroke="#B9C0E2" stroke-linecap="round" stroke-linejoin="round" stroke-miterlimit="10" x1="102.674" y1="99.859" x2="102.674" y2="102.819"/>
				
					<line fill="none" stroke="#B9C0E2" stroke-linecap="round" stroke-linejoin="round" stroke-miterlimit="10" x1="104.155" y1="101.339" x2="101.194" y2="101.339"/>
			</g>
			<g>
				
					<line fill="none" stroke="#B9C0E2" stroke-linecap="round" stroke-linejoin="round" stroke-miterlimit="10" x1="49.734" y1="85.398" x2="49.734" y2="88.359"/>
				
					<line fill="none" stroke="#B9C0E2" stroke-linecap="round" stroke-linejoin="round" stroke-miterlimit="10" x1="51.215" y1="86.878" x2="48.254" y2="86.878"/>
			</g>
			<g>
				
					<line fill="none" stroke="#B9C0E2" stroke-linecap="round" stroke-linejoin="round" stroke-miterlimit="10" x1="280.516" y1="59.363" x2="280.516" y2="62.324"/>
				
					<line fill="none" stroke="#B9C0E2" stroke-linecap="round" stroke-linejoin="round" stroke-miterlimit="10" x1="281.994" y1="60.843" x2="279.033" y2="60.843"/>
			</g>
			<g>
				
					<line fill="none" stroke="#B9C0E2" stroke-linecap="round" stroke-linejoin="round" stroke-miterlimit="10" x1="39.458" y1="141.338" x2="39.458" y2="144.297"/>
				
					<line fill="none" stroke="#B9C0E2" stroke-linecap="round" stroke-linejoin="round" stroke-miterlimit="10" x1="40.938" y1="142.817" x2="37.978" y2="142.817"/>
			</g>
			<g>
				
					<line fill="none" stroke="#B9C0E2" stroke-linecap="round" stroke-linejoin="round" stroke-miterlimit="10" x1="366.266" y1="111.988" x2="366.266" y2="114.948"/>
				
					<line fill="none" stroke="#B9C0E2" stroke-linecap="round" stroke-linejoin="round" stroke-miterlimit="10" x1="367.746" y1="113.468" x2="364.787" y2="113.468"/>
			</g>
			<g>
				
					<line fill="none" stroke="#B9C0E2" stroke-linecap="round" stroke-linejoin="round" stroke-miterlimit="10" x1="319.814" y1="95.819" x2="319.814" y2="98.781"/>
				
					<line fill="none" stroke="#B9C0E2" stroke-linecap="round" stroke-linejoin="round" stroke-miterlimit="10" x1="321.295" y1="97.299" x2="318.334" y2="97.299"/>
			</g>
		</g>
		<g>
			<circle fill="#FFFFFF" stroke="#CFD1EA" stroke-miterlimit="10" cx="78.958" cy="98.272" r="10.291"/>
			<g>
				<path fill="#E6E7F4" d="M80.244,93.161c0.441,0.107,0.84,0.261,1.198,0.462c0.357,0.201,0.663,0.427,0.917,0.676
					c0.254,0.25,0.455,0.513,0.602,0.786c0.147,0.274,0.225,0.539,0.235,0.793c0,0.088-0.032,0.165-0.095,0.228
					c-0.064,0.064-0.135,0.095-0.213,0.095h-1.924c-0.137,0-0.248-0.019-0.331-0.058c-0.083-0.041-0.169-0.098-0.257-0.177
					c-0.029-0.029-0.076-0.079-0.14-0.147c-0.063-0.068-0.154-0.139-0.271-0.212c-0.117-0.074-0.265-0.137-0.44-0.191
					c-0.177-0.054-0.392-0.081-0.646-0.081c-0.187,0-0.365,0.012-0.537,0.036c-0.171,0.025-0.323,0.064-0.456,0.118
					c-0.132,0.054-0.239,0.13-0.322,0.228c-0.084,0.098-0.125,0.221-0.125,0.367c0,0.149,0.046,0.271,0.14,0.368
					c0.092,0.098,0.249,0.189,0.47,0.271c0.22,0.083,0.512,0.165,0.874,0.243c0.362,0.079,0.812,0.172,1.351,0.279
					c0.539,0.107,1.009,0.245,1.41,0.411c0.401,0.166,0.737,0.375,1.006,0.624c0.27,0.25,0.47,0.543,0.602,0.882
					c0.133,0.337,0.198,0.737,0.198,1.196c0,0.413-0.078,0.79-0.236,1.131c-0.156,0.344-0.376,0.648-0.66,0.912
					c-0.284,0.265-0.627,0.484-1.028,0.66c-0.401,0.178-0.842,0.305-1.322,0.383v1.042c0,0.108-0.039,0.201-0.117,0.28
					c-0.078,0.078-0.171,0.118-0.279,0.118h-1.924c-0.108,0-0.201-0.04-0.279-0.118c-0.079-0.079-0.118-0.171-0.118-0.28v-1.087
					c-0.47-0.107-0.894-0.262-1.271-0.461c-0.377-0.202-0.7-0.43-0.97-0.684c-0.27-0.254-0.477-0.53-0.624-0.83
					c-0.146-0.298-0.225-0.6-0.234-0.903c0-0.088,0.031-0.163,0.095-0.228c0.063-0.064,0.134-0.095,0.212-0.095h1.924
					c0.137,0,0.246,0.016,0.324,0.051c0.078,0.035,0.156,0.085,0.235,0.154c0.039,0.04,0.098,0.103,0.176,0.191
					c0.078,0.087,0.184,0.179,0.316,0.271c0.132,0.094,0.299,0.174,0.499,0.242c0.201,0.068,0.448,0.103,0.742,0.103
					c0.519,0,0.952-0.056,1.3-0.168c0.346-0.112,0.521-0.316,0.521-0.61c0-0.147-0.063-0.268-0.191-0.367
					c-0.127-0.098-0.318-0.188-0.573-0.271c-0.254-0.083-0.58-0.165-0.976-0.242c-0.397-0.079-0.865-0.177-1.403-0.294
					c-1.008-0.216-1.745-0.576-2.21-1.079c-0.465-0.505-0.697-1.178-0.697-2.02c0-0.344,0.063-0.673,0.19-0.992
					c0.126-0.318,0.311-0.61,0.551-0.874c0.24-0.265,0.533-0.494,0.881-0.69s0.742-0.348,1.183-0.455v-1.088
					c0-0.107,0.039-0.199,0.118-0.278c0.078-0.079,0.17-0.118,0.279-0.118h1.924c0.107,0,0.201,0.039,0.279,0.118
					c0.079,0.079,0.117,0.171,0.117,0.278V93.161z"/>
			</g>
		</g>
		<g>
			<circle fill="#FFFFFF" stroke="#CFD1EA" stroke-miterlimit="10" cx="135.628" cy="42.335" r="7.151"/>
			<g>
				<path fill="#E6E7F4" d="M136.521,38.783c0.307,0.075,0.584,0.182,0.833,0.321c0.248,0.139,0.46,0.296,0.638,0.47
					c0.177,0.173,0.316,0.356,0.418,0.546c0.103,0.19,0.157,0.374,0.164,0.552c0,0.06-0.023,0.114-0.067,0.158
					c-0.044,0.044-0.093,0.065-0.148,0.065h-1.337c-0.095,0-0.172-0.013-0.229-0.04c-0.058-0.027-0.117-0.068-0.178-0.123
					c-0.021-0.02-0.054-0.054-0.098-0.101c-0.044-0.048-0.107-0.098-0.189-0.148c-0.082-0.052-0.183-0.095-0.306-0.132
					s-0.272-0.058-0.449-0.058c-0.129,0-0.253,0.009-0.372,0.027c-0.12,0.016-0.225,0.044-0.317,0.082
					c-0.092,0.036-0.167,0.09-0.225,0.158c-0.058,0.068-0.086,0.153-0.086,0.254c0,0.103,0.032,0.188,0.097,0.256
					c0.064,0.068,0.173,0.131,0.326,0.188c0.154,0.058,0.356,0.115,0.608,0.168c0.251,0.055,0.564,0.119,0.938,0.194
					c0.375,0.075,0.701,0.17,0.98,0.286c0.278,0.115,0.511,0.26,0.699,0.434c0.188,0.173,0.327,0.376,0.419,0.612
					c0.091,0.234,0.138,0.513,0.138,0.831c0,0.286-0.054,0.549-0.164,0.787c-0.108,0.238-0.262,0.448-0.459,0.631
					c-0.197,0.185-0.435,0.337-0.714,0.459c-0.278,0.123-0.585,0.211-0.919,0.267v0.724c0,0.075-0.027,0.141-0.081,0.194
					c-0.054,0.055-0.119,0.082-0.194,0.082h-1.337c-0.075,0-0.139-0.027-0.193-0.082c-0.055-0.054-0.082-0.119-0.082-0.194v-0.754
					c-0.328-0.075-0.622-0.182-0.883-0.321s-0.487-0.298-0.673-0.475c-0.188-0.177-0.332-0.37-0.434-0.577
					c-0.103-0.206-0.157-0.417-0.164-0.626c0-0.062,0.022-0.115,0.067-0.159c0.044-0.044,0.093-0.066,0.148-0.066h1.337
					c0.095,0,0.17,0.011,0.224,0.035c0.055,0.024,0.109,0.06,0.164,0.107c0.027,0.028,0.067,0.072,0.123,0.134
					c0.054,0.06,0.127,0.123,0.219,0.188c0.092,0.065,0.207,0.122,0.347,0.168c0.139,0.048,0.311,0.072,0.515,0.072
					c0.361,0,0.661-0.039,0.903-0.118c0.242-0.078,0.362-0.22,0.362-0.423c0-0.102-0.044-0.188-0.133-0.256
					c-0.089-0.067-0.221-0.131-0.398-0.188s-0.403-0.114-0.679-0.168c-0.275-0.055-0.601-0.122-0.975-0.204
					c-0.701-0.15-1.212-0.4-1.536-0.751c-0.323-0.351-0.484-0.817-0.484-1.402c0-0.238,0.044-0.468,0.132-0.689
					c0.088-0.221,0.216-0.424,0.383-0.608c0.167-0.183,0.37-0.344,0.612-0.479c0.241-0.136,0.515-0.242,0.822-0.317v-0.755
					c0-0.075,0.026-0.139,0.081-0.194c0.055-0.053,0.119-0.082,0.194-0.082h1.337c0.075,0,0.14,0.028,0.194,0.082
					c0.054,0.055,0.081,0.119,0.081,0.194V38.783z"/>
			</g>
		</g>
	</g>
	<g>
		<g>
			<g>
				<path fill="#E6E7F4" d="M284.514,210.127c-1.156-18.223,0.715-44.151,8.779-67.459c8.369-24.186,23.268-45.406,39.809-39.208
					c6.348,2.378,7.197,13.039,4.525,22.968c-7.877,29.271-26.123,46.966-33.137,83.699"/>
			</g>
			<path fill="none" stroke="#FFFFFF" stroke-linejoin="round" stroke-miterlimit="10" d="M295.328,210.127
				c2.811-57.046,34.717-107.627,34.717-107.627"/>
		</g>
		<g>
			<g>
				<path fill="#E6E7F4" d="M96.36,210.127c-9.936-25.185-45.421-71.625-60.525-48.236c-2.951,4.57-0.199,11.884,4.37,17.043
					c13.468,15.208,27.702,10.738,42.944,31.193"/>
			</g>
			<path fill="none" stroke="#FFFFFF" stroke-linejoin="round" stroke-miterlimit="10" d="M90.082,210.127
				c-16.855-35.567-52.104-50.958-52.104-50.958"/>
		</g>
		<g>
			<g>
				<path fill="#CFD1EA" d="M102.908,210.127c5.791-38.673-17.243-111.927-47.129-92.747c-6.844,4.392-3.58,21.313,0.313,30.863
					c9.78,23.992,26.345,30.051,33.068,61.884"/>
			</g>
			<path fill="none" stroke="#FFFFFF" stroke-linejoin="round" stroke-miterlimit="10" d="M97.242,210.053
				c-0.516-50.197-38.423-94.306-38.423-94.306"/>
		</g>
		<g>
			<g>
				<path fill="#E6E7F4" d="M131.791,210.127c7.694-30.25,6.123-94.583-26.439-86.828c-6.12,1.458-8.316,10.622-7.464,18.712
					c2.514,23.847,18.085,38.188,18.712,68.116"/>
			</g>
			<path fill="none" stroke="#FFFFFF" stroke-linejoin="round" stroke-miterlimit="10" d="M124.749,210.127
				c4.363-49.226-18.382-87.828-18.382-87.828"/>
		</g>
		<g>
			<g>
				<path fill="#CFD1EA" d="M305.203,210.127c2.273-22.737,9.297-51.11,20.578-68.09c9.033-13.592,23.141-19.68,31.492-11.209
					c4.641,4.711,2.885,18.323-4.176,28.57c-12.488,18.13-27.4,24.614-35.719,50.729"/>
			</g>
			<path fill="none" stroke="#FFFFFF" stroke-linejoin="round" stroke-miterlimit="10" d="M311.064,210.127
				c10.826-51.293,44.123-81.02,44.123-81.02"/>
		</g>
		<g>
			<g>
				<path fill="#E6E7F4" d="M316.869,210.127c7.559-21.287,27.289-45.866,42.248-50.324c6.045-1.8,15.346-1.139,16.504,5.628
					c0.928,5.42-4.514,13.642-10.701,18.239c-11.381,8.462-22.113,11.882-34.695,26.457"/>
			</g>
			<path fill="none" stroke="#FFFFFF" stroke-linejoin="round" stroke-miterlimit="10" d="M324.861,210.127
				c22.293-39.438,49.266-47.946,49.266-47.946"/>
		</g>
	</g>
	<g>
		<g>
			<g>
				<g>
					<g>
						<path fill="#FBC6B1" d="M272.453,130.523c0.303,2.285,0.605,4.569,0.908,6.854c-3.934-0.078-7.689,0.221-11.623,0.33
							c1.295-0.757,4.043-2.272,5.018-4.231"/>
					</g>
					<g>
						<path fill="#0F113A" d="M273.273,140.4h-2.244c-0.008-0.199,0.039-0.764-0.018-0.939c-0.424,0-1.328,0.058-1.447,0.1
							c-0.098,0.033-0.266,0.231-0.418,0.427c-0.205,0.263-0.533,0.413-0.883,0.413h-8.92c-1.102,0-1.275-1.156-0.1-1.71
							c1.066-0.503,3.385-1.589,3.486-1.607c3.549,0.302,9.352-0.271,10.486-1.331C274.08,136.558,273.287,140.378,273.273,140.4z"
							/>
					</g>
				</g>
				<path fill="#FBC6B1" d="M270.307,94.048c1.584,19.722,2.65,40.28,2.65,40.28l-6.201-0.852c0,0-6.582-26.461-8.271-39.428"/>
			</g>
			<g>
				<g>
					<g>
						<path fill="#FBC6B1" d="M254.582,130.523c0.303,2.285,0.605,4.569,0.908,6.854c-3.934-0.078-7.689,0.221-11.621,0.33
							c1.293-0.757,4.041-2.272,5.016-4.231"/>
					</g>
					<g>
						<path fill="#0F113A" d="M255.402,140.4h-2.244c-0.008-0.199,0.039-0.764-0.02-0.939c-0.422,0-1.326,0.058-1.443,0.1
							c-0.1,0.033-0.268,0.231-0.42,0.427c-0.205,0.263-0.535,0.413-0.881,0.413h-8.922c-1.102,0-1.275-1.156-0.1-1.71
							c1.064-0.503,3.385-1.589,3.486-1.607c3.549,0.302,9.352-0.271,10.488-1.331C256.209,136.558,255.416,140.378,255.402,140.4z"
							/>
					</g>
				</g>
				<path fill="#FBC6B1" d="M258,94.048c-1.271,19.714-2.912,40.28-2.912,40.28l-6.203-0.852c0,0-2.707-25.375-2.707-39.428"/>
			</g>
			<g>
				<path fill="#292D6D" d="M266.205,73.187c5.67,13.082,6.309,27.547,6.309,27.547s-8.07,2.118-14.658,2.118
					c-6.59,0-13.461-1.045-13.461-1.045s1.758-22.609,4.475-29.532"/>
				<path fill="none" stroke="#394EA2" stroke-width="0.75" stroke-linejoin="round" stroke-miterlimit="10" d="M264.559,77.729
					c3.859,7.957,5.783,23.517,5.783,23.517"/>
			</g>
		</g>
		<g>
			<g>
				<path fill="#FBCBBE" d="M243.646,47.727l0.385,2.656c0,0,1.932,1.245,3.555,0.588c1.711-0.692,1.619-1.626,1.619-1.626
					l-2.051-4.869"/>
				<path fill="#FBCBBE" d="M240.834,43.304c-0.332,1.532,0.682,5.863,2.941,5.688c2.381-0.182,4.148-2.14,3.297-4.81
					C246.176,41.375,241.709,39.276,240.834,43.304z"/>
				<path fill="none" stroke="#E88872" stroke-width="0.75" stroke-linejoin="round" stroke-miterlimit="10" d="M243.857,49.188
					c1.16-0.19,2.568-0.804,3.182-2.383"/>
				<g>
					<g>
						<polygon fill="#F5855E" points="246.707,44.039 246.707,44.033 246.707,44.039 						"/>
					</g>
				</g>
				<g>
					<g>
						<path fill="#F5855E" d="M246.67,44.036c-0.002,0.01-0.003,0.021-0.004,0.031c-0.007,0.048,0.068,0.047,0.074,0
							c0.002-0.01,0.003-0.021,0.004-0.031C246.751,43.988,246.676,43.989,246.67,44.036L246.67,44.036z"/>
					</g>
				</g>
				<g>
					<path fill="#222237" d="M246.771,44.707c-0.748-0.103-1.154-0.591-1.438-1.247c-0.49,0.395-1.326,0.34-1.811,0.125
						c-0.486-0.217-0.797-0.581-1.045-1.027c-0.369,0.759-0.922,1.233-1.781,1.42c-0.248-1.256,0.486-2.593,1.631-3.331
						c1.143-0.736,2.752-0.909,3.941-0.313c1.189,0.596,2.012,1.931,2.162,3.205c0.098,0.819-0.131,2.464-0.824,2.366
						C247.277,45.859,246.771,44.707,246.771,44.707z"/>
				</g>
				<g>
					<path fill="#FBCBBE" d="M246.266,44.613c-0.02-0.091,0.035-0.377,0.307-0.541c0.477-0.288,0.93,0.277,0.98,0.793
						c0.029,0.324-0.029,0.594-0.195,0.887c-0.219,0.384-0.58,0.538-0.873,0.185"/>
				</g>
			</g>
			<g>
				<path fill="#222237" d="M243.223,40.255c-0.41-0.048-0.658-0.491-0.586-0.878s0.383-0.705,0.729-0.931
					c0.168-0.11,0.348-0.205,0.545-0.26c0.291-0.084,0.604-0.078,0.9-0.031c0.357,0.055,0.723,0.177,0.943,0.443
					c0.279,0.339,0.252,0.854-0.002,1.228c-0.252,0.373-0.689,0.611-1.143,0.713"/>
			</g>
		</g>
		<g>
			<g>
				<path fill="#FBCBBE" d="M244.279,62.613c-4.066,10.481-14.988,21.79-14.988,21.79l-3.559-2.698c0,0,7.611-10.678,11.027-21.556"
					/>
				<g>
					<path fill="#FBCBBE" d="M226.641,80.508c-0.92,1.346-4.275,4.841-4.107,5.128c0.166,0.286,1.363-0.927,1.455-0.667
						c0.09,0.26-1.617,2.244-1.369,2.491c0.338,0.332,1.971-1.788,1.971-1.788s-1.664,2.406-1.281,2.615
						c0.271,0.149,1.631-1.632,2.242-2.253c-0.57,0.75-1.342,2.069-1.057,2.217c0.281,0.147,1.236-1.046,2.02-1.926
						c-0.434,0.59-1.16,1.707-0.904,1.855c0.254,0.148,2.789-2.605,5.068-5.285"/>
				</g>
				<path fill="none" stroke="#E9937F" stroke-width="0.75" stroke-miterlimit="10" d="M224.49,84.804c0,0,1.557-0.364,2.123-0.856"
					/>
			</g>
			<path fill="#F04F47" d="M243.271,50.881c-4.66,1.436-6.891,9.605-6.891,9.605l5.166,2.205l2.289-10.559"/>
			<path fill="#F04F47" d="M243.271,50.881c1.338,0.245,1.66,0.253,2.607-0.047c1.707-0.539,3.006-1.408,3.006-1.408
				s4.885-0.236,9.645,4.788c2.436,2.572,6.504,9.893,8.92,19.674c-9.074,2.935-22.293,4.762-22.293,4.762
				s-4.807-18.501-4.631-23.992C240.584,52.815,243.271,50.881,243.271,50.881z"/>
			<polygon fill="#FFFFFF" points="248.756,48.28 245.66,50.903 247.641,53.481 249.693,49.425 			"/>
			<polygon fill="#FFFFFF" points="245.66,50.903 243.906,49.528 243.271,50.881 244.215,53.728 			"/>
			<path fill="none" stroke="#D62237" stroke-width="0.75" stroke-miterlimit="10" d="M241.348,62.461
				c-0.551-2.76-0.828-4.75-0.828-4.75"/>
		</g>
	</g>
	<g>
		<path fill="#B9C0E2" d="M229.699,179.026h-43.696c0,0,1.812,27.833-6.84,27.833c2.768,0,54.609,0,57.376,0
			C227.887,206.859,229.699,179.026,229.699,179.026z"/>
		<path fill="#8790C7" d="M185.506,195.757l44.052-8.925c-0.08-4.415,0.141-7.806,0.141-7.806h-43.696
			C186.003,179.026,186.586,187.999,185.506,195.757z"/>
		<path fill="#B9C0E2" d="M291.551,187.418h-167.4c-2.199,0-3.98-1.782-3.98-3.981V76.326c0-2.197,1.782-3.98,3.98-3.98h167.4
			c2.197,0,3.98,1.783,3.98,3.98v107.111C295.531,185.636,293.748,187.418,291.551,187.418z"/>
		<path fill="#FFFFFF" stroke="#8790C7" stroke-miterlimit="10" d="M288.756,183.339H126.947c-1.023,0-1.853-0.828-1.853-1.851
			V78.276c0-1.022,0.829-1.851,1.853-1.851h161.809c1.021,0,1.85,0.829,1.85,1.851v103.212
			C290.605,182.511,289.777,183.339,288.756,183.339z"/>
		<line fill="none" stroke="#8790C7" stroke-miterlimit="10" x1="125.094" y1="89.908" x2="290.605" y2="89.908"/>
		<path fill="#E6E7F4" d="M270.729,85.708H156.703c-1.563,0-2.829-1.266-2.829-2.829l0,0c0-1.562,1.266-2.828,2.829-2.828h114.025
			c1.563,0,2.83,1.266,2.83,2.828l0,0C273.559,84.442,272.291,85.708,270.729,85.708z"/>
		<g>
			<circle fill="#FFFFFF" stroke="#8790C7" stroke-miterlimit="10" cx="131.707" cy="83.02" r="1.509"/>
			<circle fill="#FFFFFF" stroke="#8790C7" stroke-miterlimit="10" cx="138.751" cy="83.02" r="1.51"/>
			<circle fill="#FFFFFF" stroke="#8790C7" stroke-miterlimit="10" cx="145.795" cy="83.02" r="1.51"/>
		</g>
		<g>
			<g>
				<path fill="none" stroke="#4777BC" stroke-width="1.5" stroke-miterlimit="10" d="M254.045,128.649h-92.389
					c-3.5,0-6.337-2.837-6.337-6.338l0,0c0-3.5,2.837-6.338,6.337-6.338h92.389c3.5,0,6.338,2.839,6.338,6.338l0,0
					C260.383,125.813,257.545,128.649,254.045,128.649z"/>
				<path fill="#4777BC" d="M254.045,115.973H243.41v12.676h10.635c3.5,0,6.338-2.837,6.338-6.338l0,0
					C260.383,118.812,257.545,115.973,254.045,115.973z"/>
			</g>
			<path fill="#FFFFFF" d="M255.896,125.369l-2.098-2.098c0.426-0.567,0.656-1.261,0.656-1.97c0-1.817-1.479-3.295-3.293-3.295
				c-1.818,0-3.297,1.478-3.297,3.295c0,1.816,1.479,3.294,3.297,3.294c0.525,0,1.049-0.13,1.518-0.375l2.184,2.183
				c0.139,0.139,0.322,0.214,0.516,0.214c0.195,0,0.381-0.075,0.518-0.214c0.139-0.139,0.215-0.322,0.215-0.517
				C256.111,125.69,256.035,125.507,255.896,125.369z M253.525,121.301c0,1.303-1.061,2.364-2.363,2.364
				c-1.305,0-2.367-1.061-2.367-2.364c0-1.305,1.063-2.366,2.367-2.366C252.465,118.935,253.525,119.996,253.525,121.301z"/>
			<path opacity="0.75" fill="#E1EBF7" d="M188.251,125.039h-26.441c-1.506,0-2.728-1.22-2.728-2.727l0,0
				c0-1.507,1.221-2.728,2.728-2.728h26.441c1.506,0,2.727,1.221,2.727,2.728l0,0C190.979,123.818,189.757,125.039,188.251,125.039z
				"/>
		</g>
		<rect x="171.359" y="206.064" fill="#B9C0E2" width="72.983" height="4.063"/>
		<g>
			<g>
				<path opacity="0.75" fill="#E1EBF7" d="M195.45,142.637h-17.892c-1.684,0-3.049-1.364-3.049-3.048l0,0
					c0-1.684,1.365-3.048,3.049-3.048h17.892c1.683,0,3.048,1.364,3.048,3.048l0,0C198.498,141.272,197.133,142.637,195.45,142.637z
					"/>
				
					<line fill="none" stroke="#4777BC" stroke-width="1.5" stroke-miterlimit="10" x1="177.79" y1="140.35" x2="195.219" y2="140.35"/>
			</g>
			<g>
				<path opacity="0.75" fill="#E1EBF7" d="M238.143,142.637h-31.762c-1.683,0-3.047-1.364-3.047-3.048l0,0
					c0-1.684,1.364-3.048,3.047-3.048h31.762c1.684,0,3.051,1.364,3.051,3.048l0,0C241.193,141.272,239.826,142.637,238.143,142.637
					z"/>
				
					<line fill="none" stroke="#4777BC" stroke-width="1.5" stroke-miterlimit="10" x1="209.978" y1="140.35" x2="234.547" y2="140.35"/>
			</g>
		</g>
		<line fill="#FFFFFF" stroke="#8790C7" stroke-miterlimit="10" x1="258.188" y1="95.016" x2="264.885" y2="95.016"/>
		<line fill="#FFFFFF" stroke="#8790C7" stroke-miterlimit="10" x1="268.127" y1="95.016" x2="274.822" y2="95.016"/>
		<g>
			<rect x="277.234" y="93.203" opacity="0.75" fill="#F6F6FB" width="0.9" height="0.901"/>
			<rect x="278.49" y="93.203" opacity="0.75" fill="#F6F6FB" width="0.9" height="0.901"/>
			<rect x="279.748" y="93.203" opacity="0.75" fill="#F6F6FB" width="0.9" height="0.901"/>
			<rect x="277.234" y="94.565" opacity="0.75" fill="#F6F6FB" width="0.9" height="0.902"/>
			<rect x="278.49" y="94.565" opacity="0.75" fill="#F6F6FB" width="0.9" height="0.902"/>
			<rect x="279.748" y="94.565" opacity="0.75" fill="#F6F6FB" width="0.9" height="0.902"/>
			<rect x="277.234" y="95.929" opacity="0.75" fill="#F6F6FB" width="0.9" height="0.901"/>
			<rect x="278.49" y="95.929" opacity="0.75" fill="#F6F6FB" width="0.9" height="0.901"/>
			<rect x="279.748" y="95.929" opacity="0.75" fill="#F6F6FB" width="0.9" height="0.901"/>
		</g>
		<circle fill="#F6F6FB" cx="284.37" cy="95.016" r="2.284"/>
		<g>
			<circle fill="#8790C7" cx="286.035" cy="80.052" r="0.596"/>
			<circle fill="#8790C7" cx="286.035" cy="82.879" r="0.596"/>
			<circle fill="#8790C7" cx="286.035" cy="85.708" r="0.596"/>
		</g>
		<line fill="none" stroke="#8790C7" stroke-miterlimit="10" x1="234.547" y1="206.281" x2="197.202" y2="206.281"/>
		<line fill="none" stroke="#8790C7" stroke-miterlimit="10" x1="193.012" y1="206.281" x2="180.819" y2="206.281"/>
		<g>
			<path fill="#F6F6FB" d="M224.689,172.937h-85.741c-1.454,0-2.632-1.179-2.632-2.632V111.28c0-1.455,1.178-2.632,2.632-2.632
				h85.741c1.453,0,2.633,1.177,2.633,2.632v59.024C227.322,171.758,226.143,172.937,224.689,172.937z"/>
			<path fill="#FFFFFF" stroke="#8790C7" stroke-miterlimit="10" d="M219.377,169.631h-85.741c-1.454,0-2.633-1.179-2.633-2.632
				v-59.024c0-1.454,1.179-2.632,2.633-2.632h85.741c1.453,0,2.631,1.179,2.631,2.632v59.024
				C222.008,168.452,220.83,169.631,219.377,169.631z"/>
			<path fill="#8790C7" d="M219.516,105.342h-86.02c-1.376,0-2.492,1.116-2.492,2.492v4.119h91.004v-4.119
				C222.008,106.458,220.893,105.342,219.516,105.342z"/>
			<g>
				<path fill="#F6F6FB" d="M212.974,150.999h-72.181c-0.678,0-1.228-0.551-1.228-1.229l0,0c0-0.679,0.55-1.229,1.228-1.229h72.181
					c0.679,0,1.229,0.55,1.229,1.229l0,0C214.202,150.448,213.652,150.999,212.974,150.999z"/>
				<path fill="#F6F6FB" d="M212.974,155.277h-72.181c-0.678,0-1.228-0.549-1.228-1.228l0,0c0-0.679,0.55-1.229,1.228-1.229h72.181
					c0.679,0,1.229,0.55,1.229,1.229l0,0C214.202,154.729,213.652,155.277,212.974,155.277z"/>
				<path fill="#F6F6FB" d="M212.974,159.548h-72.181c-0.678,0-1.228-0.549-1.228-1.229l0,0c0-0.678,0.55-1.228,1.228-1.228h72.181
					c0.679,0,1.229,0.55,1.229,1.228l0,0C214.202,158.999,213.652,159.548,212.974,159.548z"/>
				<path fill="#F6F6FB" d="M212.974,163.819h-72.181c-0.678,0-1.228-0.55-1.228-1.229l0,0c0-0.679,0.55-1.228,1.228-1.228h72.181
					c0.679,0,1.229,0.549,1.229,1.228l0,0C214.202,163.27,213.652,163.819,212.974,163.819z"/>
				<path fill="#F6F6FB" d="M212.974,146.719h-72.181c-0.678,0-1.228-0.55-1.228-1.228l0,0c0-0.678,0.55-1.229,1.228-1.229h72.181
					c0.679,0,1.229,0.551,1.229,1.229l0,0C214.202,146.169,213.652,146.719,212.974,146.719z"/>
			</g>
			<g>
				<g id="XMLID_64_" opacity="0.75">
					<path fill="#B9C0E2" d="M156.751,120.653c-1.76-2.647-4.77-4.394-8.188-4.394v9.827L156.751,120.653z"/>
				</g>
				<path fill="#E6E7F4" d="M156.044,122.105l-8.186,5.431v-9.826c-5.427,0-9.826,4.4-9.826,9.826c0,5.427,4.398,9.825,9.826,9.825
					c5.426,0,9.825-4.398,9.825-9.825C157.683,125.529,157.078,123.662,156.044,122.105z"/>
				<path fill="#E6E7F4" d="M205.154,117.71v9.826l-7.812,5.943l0,0c1.794,2.355,4.621,3.882,7.812,3.882
					c5.426,0,9.824-4.398,9.824-9.825C214.979,122.111,210.58,117.71,205.154,117.71z"/>
				<path fill="#B9C0E2" d="M183.938,132.982c1.275-1.656,2.042-3.726,2.042-5.979c0-5.427-4.399-9.826-9.826-9.826v9.826
					L183.938,132.982z"/>
				<path fill="#E6E7F4" d="M182.842,133.517l-7.783-5.98v-9.826c-5.427,0-9.826,4.4-9.826,9.826c0,5.427,4.399,9.825,9.826,9.825
					C178.232,137.361,181.046,135.851,182.842,133.517L182.842,133.517z"/>
				<path fill="#B9C0E2" d="M194.397,127.021c0,2.236,0.755,4.291,2.013,5.944l7.812-5.944v-9.825
					C198.796,117.197,194.397,121.595,194.397,127.021z"/>
			</g>
		</g>
		<g>
			<path fill="#F6F6FB" d="M283.164,162.978h-94.247c-1.598,0-2.893-1.296-2.893-2.894v-67.74c0-1.598,1.295-2.894,2.893-2.894
				h94.247c1.598,0,2.893,1.295,2.893,2.894v67.74C286.057,161.682,284.762,162.978,283.164,162.978z"/>
			<path fill="#FFFFFF" stroke="#8790C7" stroke-miterlimit="10" d="M277.322,159.344h-94.246c-1.598,0-2.894-1.295-2.894-2.895
				V88.71c0-1.598,1.296-2.893,2.894-2.893h94.246c1.6,0,2.895,1.295,2.895,2.893v67.739
				C280.217,158.049,278.922,159.344,277.322,159.344z"/>
			<path fill="#8790C7" d="M277.477,85.817h-94.554c-1.513,0-2.739,1.226-2.739,2.738v4.528h100.034v-4.528
				C280.217,87.042,278.99,85.817,277.477,85.817z"/>
			<g>
				<g>
					<rect x="257.074" y="106.56" fill="#D6D8ED" width="6.695" height="4.715"/>
					<line fill="none" stroke="#D6D8ED" stroke-miterlimit="10" x1="266.846" y1="106.56" x2="271.475" y2="106.56"/>
					<line fill="none" stroke="#D6D8ED" stroke-miterlimit="10" x1="266.846" y1="111.275" x2="276.205" y2="111.275"/>
					<line fill="none" stroke="#D6D8ED" stroke-miterlimit="10" x1="266.846" y1="109.757" x2="276.205" y2="109.757"/>
					<line fill="none" stroke="#D6D8ED" stroke-miterlimit="10" x1="266.846" y1="108.281" x2="276.205" y2="108.281"/>
				</g>
				<g>
					<rect x="257.074" y="116.422" fill="#D6D8ED" width="6.695" height="4.714"/>
					<line fill="none" stroke="#D6D8ED" stroke-miterlimit="10" x1="266.846" y1="116.422" x2="271.475" y2="116.422"/>
					<line fill="none" stroke="#D6D8ED" stroke-miterlimit="10" x1="266.846" y1="121.136" x2="276.205" y2="121.136"/>
					<line fill="none" stroke="#D6D8ED" stroke-miterlimit="10" x1="266.846" y1="119.619" x2="276.205" y2="119.619"/>
					<line fill="none" stroke="#D6D8ED" stroke-miterlimit="10" x1="266.846" y1="118.143" x2="276.205" y2="118.143"/>
				</g>
				<g>
					<rect x="257.074" y="126.283" fill="#D6D8ED" width="6.695" height="4.715"/>
					<line fill="none" stroke="#D6D8ED" stroke-miterlimit="10" x1="266.846" y1="126.283" x2="271.475" y2="126.283"/>
					<line fill="none" stroke="#D6D8ED" stroke-miterlimit="10" x1="266.846" y1="130.998" x2="276.205" y2="130.998"/>
					<line fill="none" stroke="#D6D8ED" stroke-miterlimit="10" x1="266.846" y1="129.48" x2="276.205" y2="129.48"/>
					<line fill="none" stroke="#D6D8ED" stroke-miterlimit="10" x1="266.846" y1="128.004" x2="276.205" y2="128.004"/>
				</g>
				<g>
					<rect x="257.074" y="136.146" fill="#D6D8ED" width="6.695" height="4.714"/>
					<line fill="none" stroke="#D6D8ED" stroke-miterlimit="10" x1="266.846" y1="136.146" x2="271.475" y2="136.146"/>
					<line fill="none" stroke="#D6D8ED" stroke-miterlimit="10" x1="266.846" y1="140.859" x2="276.205" y2="140.859"/>
					<line fill="none" stroke="#D6D8ED" stroke-miterlimit="10" x1="266.846" y1="139.344" x2="276.205" y2="139.344"/>
					<line fill="none" stroke="#D6D8ED" stroke-miterlimit="10" x1="266.846" y1="137.864" x2="276.205" y2="137.864"/>
				</g>
				<g>
					<rect x="257.074" y="146.007" fill="#D6D8ED" width="6.695" height="4.715"/>
					<line fill="none" stroke="#D6D8ED" stroke-miterlimit="10" x1="266.846" y1="146.007" x2="271.475" y2="146.007"/>
					<line fill="none" stroke="#D6D8ED" stroke-miterlimit="10" x1="266.846" y1="150.722" x2="276.205" y2="150.722"/>
					<line fill="none" stroke="#D6D8ED" stroke-miterlimit="10" x1="266.846" y1="149.204" x2="276.205" y2="149.204"/>
					<line fill="none" stroke="#D6D8ED" stroke-miterlimit="10" x1="266.846" y1="147.727" x2="276.205" y2="147.727"/>
				</g>
			</g>
			<line fill="none" stroke="#F6F6FB" stroke-width="2" stroke-miterlimit="10" x1="201.24" y1="98.746" x2="259.16" y2="98.746"/>
			
				<line fill="none" stroke="#F6F6FB" stroke-width="2" stroke-miterlimit="10" x1="209.166" y1="101.688" x2="251.234" y2="101.688"/>
			<g>
				<polygon fill="#B9C0E2" points="209.918,125.047 209.918,149.972 214.922,149.972 214.922,121.41 				"/>
				<polygon fill="#B9C0E2" points="203.227,129.912 200.725,128.313 200.725,149.972 205.728,149.972 205.728,128.094 				"/>
				<polygon fill="#B9C0E2" points="194.033,124.031 191.531,125.627 191.531,149.972 196.535,149.972 196.535,125.632 				"/>
				<polygon fill="#B9C0E2" points="237.498,119.232 237.498,149.972 242.502,149.972 242.502,116.25 				"/>
				<polygon fill="#B9C0E2" points="221.613,116.545 219.111,118.364 219.111,149.972 224.115,149.972 224.115,118.361 				"/>
				<polygon fill="#B9C0E2" points="230.807,123.22 228.305,121.404 228.305,149.972 233.309,149.972 233.309,121.729 				"/>
				<polyline fill="none" stroke="#D6D8ED" stroke-miterlimit="10" points="185.882,123.646 185.882,149.972 252.551,149.972 				
					"/>
				<polyline fill="none" stroke="#D6D8ED" stroke-miterlimit="10" points="184.776,124.297 185.882,123.475 186.989,124.297 				
					"/>
				<polyline fill="none" stroke="#D6D8ED" stroke-miterlimit="10" points="251.768,149.149 252.875,149.972 251.768,150.794 				
					"/>
				<polyline fill="none" stroke="#D6D8ED" stroke-miterlimit="10" points="187.153,126.559 194.033,122.171 203.227,128.053 
					221.613,114.685 230.807,121.36 248.678,110.71 				"/>
				<polyline fill="none" stroke="#D6D8ED" stroke-miterlimit="10" points="246.447,110.315 248.57,110.674 248.01,112.814 				"/>
				<line fill="none" stroke="#D6D8ED" stroke-miterlimit="10" x1="191.531" y1="153.588" x2="196.386" y2="153.588"/>
				<line fill="none" stroke="#D6D8ED" stroke-miterlimit="10" x1="200.799" y1="153.588" x2="205.653" y2="153.588"/>
				<line fill="none" stroke="#D6D8ED" stroke-miterlimit="10" x1="210.066" y1="153.588" x2="214.922" y2="153.588"/>
				<line fill="none" stroke="#D6D8ED" stroke-miterlimit="10" x1="219.334" y1="153.588" x2="224.189" y2="153.588"/>
				<line fill="none" stroke="#D6D8ED" stroke-miterlimit="10" x1="228.604" y1="153.588" x2="233.459" y2="153.588"/>
				<line fill="none" stroke="#D6D8ED" stroke-miterlimit="10" x1="237.871" y1="153.588" x2="242.725" y2="153.588"/>
			</g>
		</g>
		<line fill="none" stroke="#8790C7" stroke-miterlimit="10" x1="47.942" y1="210.127" x2="367.758" y2="210.127"/>
	</g>
	<g>
		<g>
			<path fill="#FBAA19" d="M84.681,173.136c-11.68,0-30.957,32.247-24.293,36.762c6.665,4.515,38.481,4.515,45.791,0
				C113.488,205.383,99.084,173.136,84.681,173.136z"/>
			<path fill="#FBAA19" d="M87.773,178.522l5.498-13.742c0,0-0.172-2.233-3.951-2.922c-3.779-0.687-3.264,2.235-6.699,2.235
				c-3.436,0-7.474-3.352-10.308-0.517l8.074,14.945H87.773z"/>
			<g>
				<path fill="#E48425" d="M86.827,185.688c0.65,0.158,1.239,0.386,1.765,0.682c0.527,0.296,0.978,0.629,1.354,0.995
					c0.375,0.368,0.67,0.755,0.887,1.159c0.216,0.404,0.332,0.795,0.347,1.17c0,0.13-0.048,0.241-0.141,0.336
					c-0.094,0.092-0.199,0.139-0.314,0.139h-2.836c-0.202,0-0.365-0.027-0.487-0.085s-0.249-0.145-0.379-0.26
					c-0.043-0.044-0.112-0.115-0.206-0.217c-0.093-0.101-0.227-0.205-0.4-0.313c-0.173-0.109-0.39-0.202-0.65-0.281
					c-0.259-0.08-0.577-0.12-0.952-0.12c-0.274,0-0.538,0.018-0.79,0.054c-0.253,0.036-0.477,0.095-0.672,0.174
					s-0.354,0.191-0.477,0.336s-0.184,0.324-0.184,0.541s0.068,0.397,0.206,0.542s0.369,0.278,0.693,0.399
					c0.325,0.123,0.754,0.242,1.288,0.357c0.534,0.116,1.198,0.253,1.993,0.411c0.793,0.16,1.486,0.361,2.078,0.606
					c0.591,0.246,1.086,0.553,1.483,0.921c0.397,0.367,0.693,0.8,0.889,1.299c0.194,0.498,0.292,1.087,0.292,1.766
					c0,0.605-0.115,1.161-0.347,1.666c-0.23,0.506-0.556,0.953-0.973,1.342c-0.42,0.39-0.924,0.715-1.517,0.976
					c-0.592,0.26-1.241,0.447-1.949,0.563v1.538c0,0.157-0.058,0.295-0.172,0.41c-0.116,0.116-0.252,0.174-0.411,0.174h-2.837
					c-0.159,0-0.296-0.058-0.412-0.174c-0.115-0.115-0.173-0.253-0.173-0.41v-1.604c-0.692-0.158-1.317-0.385-1.873-0.682
					c-0.556-0.296-1.032-0.632-1.428-1.006c-0.397-0.376-0.704-0.783-0.921-1.225c-0.216-0.439-0.332-0.884-0.346-1.332
					c0-0.13,0.046-0.24,0.14-0.334c0.094-0.094,0.198-0.143,0.313-0.143h2.837c0.202,0,0.361,0.025,0.477,0.076
					c0.116,0.052,0.231,0.128,0.347,0.229c0.058,0.059,0.144,0.152,0.259,0.28c0.116,0.13,0.271,0.264,0.466,0.4
					c0.195,0.14,0.44,0.257,0.736,0.358c0.295,0.101,0.66,0.151,1.093,0.151c0.765,0,1.404-0.083,1.917-0.249
					c0.512-0.166,0.768-0.467,0.768-0.899c0-0.215-0.094-0.396-0.281-0.54c-0.188-0.145-0.469-0.278-0.844-0.4
					c-0.375-0.123-0.855-0.242-1.44-0.357c-0.584-0.115-1.274-0.261-2.068-0.434c-1.487-0.317-2.573-0.849-3.258-1.591
					c-0.686-0.744-1.029-1.736-1.029-2.978c0-0.505,0.093-0.992,0.282-1.462c0.187-0.469,0.458-0.899,0.813-1.289
					c0.353-0.389,0.786-0.728,1.298-1.017c0.513-0.289,1.094-0.513,1.743-0.671v-1.602c0-0.159,0.058-0.296,0.173-0.413
					c0.116-0.115,0.253-0.173,0.412-0.173h2.837c0.159,0,0.295,0.058,0.411,0.173c0.115,0.116,0.172,0.254,0.172,0.413V185.688z"/>
			</g>
			<path fill="none" stroke="#FFD550" stroke-miterlimit="10" d="M78.668,175.342c5.716,2.635,10.811-1.08,10.811-1.08"/>
			<path fill="none" stroke="#FFD550" stroke-miterlimit="10" d="M86.248,175.779c0,0,4.268-2.41,2.996-6.227
				c-1.752-5.257-3.792,6.439-3.792,6.439c3.996,0,1.577,4.433,5.125,5.238"/>
			<path fill="none" stroke="#FFD550" stroke-miterlimit="10" d="M84.738,176.136c0,0-5.588-0.966-5.564-4.988
				c0.033-5.542,6.025,4.845,6.025,4.845c-5.99,3.223-3.445,6.267-6.531,7.486"/>
		</g>
		<g>
			<path fill="#FBAA19" d="M289.326,169.153c-13.01,0-34.479,35.915-27.057,40.943c7.422,5.029,42.859,5.029,51,0
				C321.41,205.068,305.367,169.153,289.326,169.153z"/>
			<path fill="#FBAA19" d="M292.771,175.153l6.123-15.307c0,0-0.191-2.487-4.402-3.253c-4.207-0.766-3.635,2.488-7.461,2.488
				s-8.322-3.731-11.48-0.574l8.992,16.646H292.771z"/>
			<g>
				<path fill="#E48425" d="M291.717,183.133c0.725,0.177,1.379,0.43,1.967,0.759c0.586,0.331,1.088,0.7,1.508,1.109
					c0.418,0.41,0.746,0.841,0.986,1.29c0.242,0.451,0.371,0.885,0.387,1.304c0,0.144-0.051,0.268-0.156,0.373
					c-0.105,0.104-0.221,0.157-0.35,0.157H292.9c-0.225,0-0.408-0.032-0.543-0.098c-0.137-0.063-0.277-0.161-0.424-0.289
					c-0.049-0.049-0.123-0.129-0.227-0.241c-0.105-0.111-0.256-0.229-0.447-0.35c-0.193-0.12-0.434-0.225-0.723-0.313
					c-0.289-0.09-0.645-0.134-1.063-0.134c-0.307,0-0.6,0.02-0.881,0.06c-0.281,0.042-0.531,0.106-0.748,0.193
					c-0.215,0.09-0.393,0.214-0.529,0.374c-0.137,0.162-0.205,0.361-0.205,0.603c0,0.242,0.076,0.443,0.229,0.604
					c0.154,0.161,0.41,0.311,0.771,0.447c0.363,0.137,0.84,0.269,1.436,0.397c0.594,0.13,1.334,0.281,2.219,0.458
					c0.885,0.178,1.656,0.401,2.316,0.676c0.658,0.272,1.207,0.615,1.65,1.023c0.443,0.411,0.773,0.893,0.99,1.448
					c0.217,0.554,0.326,1.209,0.326,1.964c0,0.676-0.131,1.295-0.389,1.857c-0.256,0.563-0.617,1.062-1.084,1.497
					c-0.467,0.432-1.029,0.795-1.689,1.084c-0.658,0.29-1.381,0.499-2.17,0.627v1.712c0,0.177-0.063,0.329-0.193,0.459
					c-0.127,0.129-0.281,0.192-0.457,0.192h-3.158c-0.178,0-0.33-0.063-0.459-0.192c-0.129-0.13-0.193-0.282-0.193-0.459v-1.784
					c-0.771-0.177-1.467-0.431-2.086-0.76s-1.15-0.704-1.592-1.122c-0.441-0.417-0.783-0.872-1.023-1.362
					c-0.242-0.489-0.371-0.983-0.389-1.482c0-0.146,0.055-0.269,0.158-0.375c0.104-0.104,0.221-0.156,0.35-0.156h3.158
					c0.227,0,0.402,0.028,0.533,0.084c0.127,0.058,0.256,0.143,0.385,0.255c0.064,0.063,0.16,0.168,0.289,0.313
					s0.301,0.292,0.518,0.446c0.217,0.152,0.49,0.285,0.82,0.398c0.33,0.112,0.736,0.169,1.219,0.169
					c0.852,0,1.563-0.093,2.135-0.278c0.57-0.185,0.855-0.519,0.855-1.001c0-0.241-0.105-0.441-0.314-0.603
					c-0.209-0.16-0.523-0.31-0.939-0.445c-0.418-0.137-0.953-0.271-1.604-0.399c-0.65-0.128-1.42-0.289-2.305-0.481
					c-1.656-0.354-2.865-0.944-3.629-1.771c-0.764-0.829-1.146-1.935-1.146-3.316c0-0.563,0.105-1.105,0.316-1.629
					c0.207-0.521,0.51-1.001,0.904-1.435c0.393-0.434,0.875-0.811,1.445-1.134c0.57-0.321,1.219-0.57,1.941-0.748v-1.784
					c0-0.176,0.064-0.329,0.193-0.457c0.129-0.129,0.281-0.194,0.459-0.194h3.158c0.176,0,0.33,0.065,0.457,0.194
					c0.131,0.128,0.193,0.281,0.193,0.457V183.133z"/>
			</g>
			<path fill="none" stroke="#FFD550" stroke-miterlimit="10" d="M282.629,171.61c6.365,2.935,12.041-1.203,12.041-1.203"/>
			<path fill="none" stroke="#FFD550" stroke-miterlimit="10" d="M291.072,172.098c0,0,4.754-2.685,3.338-6.935
				c-1.953-5.855-4.225,7.172-4.225,7.172c4.449,0,1.756,4.936,5.707,5.834"/>
			<path fill="none" stroke="#FFD550" stroke-miterlimit="10" d="M289.391,172.494c0,0-6.225-1.075-6.197-5.557
				c0.037-6.172,6.711,5.397,6.711,5.397c-6.672,3.589-3.838,6.98-7.275,8.337"/>
		</g>
		<g>
			<path fill="#FFC523" d="M251.617,181.515c-9.727,0-25.781,26.855-20.23,30.614c5.549,3.761,32.045,3.761,38.133,0
				C275.607,208.37,263.613,181.515,251.617,181.515z"/>
			<path fill="#FFC523" d="M254.193,186.001l4.578-11.445c0,0-0.145-1.859-3.291-2.433c-3.148-0.571-2.719,1.86-5.58,1.86
				s-6.223-2.789-8.584-0.43l6.725,12.447H254.193z"/>
			<g>
				<path fill="#F19520" d="M253.404,191.967c0.543,0.133,1.031,0.322,1.471,0.569c0.438,0.246,0.814,0.521,1.127,0.829
					c0.313,0.307,0.559,0.628,0.738,0.964c0.182,0.337,0.277,0.662,0.289,0.975c0,0.109-0.039,0.201-0.117,0.279
					c-0.078,0.079-0.164,0.116-0.26,0.116h-2.363c-0.168,0-0.305-0.022-0.406-0.072c-0.102-0.047-0.207-0.119-0.314-0.214
					c-0.037-0.037-0.094-0.098-0.172-0.182c-0.078-0.083-0.189-0.172-0.334-0.262c-0.145-0.091-0.324-0.168-0.541-0.235
					c-0.217-0.064-0.48-0.098-0.793-0.098c-0.229,0-0.449,0.015-0.658,0.044c-0.211,0.031-0.398,0.079-0.559,0.145
					c-0.162,0.067-0.295,0.159-0.398,0.28c-0.102,0.119-0.152,0.271-0.152,0.449c0,0.181,0.057,0.332,0.172,0.452
					c0.113,0.119,0.307,0.231,0.576,0.334c0.27,0.102,0.629,0.2,1.074,0.297c0.443,0.096,0.998,0.211,1.658,0.343
					s1.238,0.301,1.73,0.506c0.494,0.203,0.904,0.459,1.236,0.767c0.33,0.305,0.576,0.666,0.738,1.081s0.244,0.905,0.244,1.47
					c0,0.504-0.098,0.968-0.289,1.388c-0.193,0.422-0.463,0.794-0.811,1.119c-0.35,0.325-0.77,0.594-1.264,0.811
					c-0.492,0.217-1.033,0.372-1.623,0.47v1.279c0,0.133-0.047,0.246-0.143,0.343c-0.098,0.097-0.211,0.145-0.344,0.145h-2.361
					c-0.133,0-0.248-0.048-0.342-0.145c-0.098-0.097-0.146-0.21-0.146-0.343v-1.334c-0.576-0.131-1.096-0.321-1.559-0.567
					s-0.859-0.527-1.191-0.839c-0.33-0.313-0.584-0.652-0.766-1.019c-0.18-0.367-0.277-0.736-0.289-1.109
					c0-0.108,0.039-0.201,0.117-0.28c0.08-0.077,0.166-0.116,0.262-0.116h2.361c0.17,0,0.303,0.021,0.398,0.062
					c0.096,0.044,0.193,0.107,0.289,0.191c0.047,0.047,0.119,0.124,0.217,0.232c0.096,0.108,0.225,0.22,0.387,0.334
					c0.162,0.115,0.365,0.215,0.613,0.298c0.246,0.085,0.549,0.126,0.91,0.126c0.637,0,1.168-0.068,1.596-0.206
					c0.428-0.14,0.641-0.39,0.641-0.749c0-0.18-0.078-0.331-0.234-0.45c-0.156-0.12-0.391-0.231-0.703-0.334
					s-0.713-0.201-1.199-0.298c-0.486-0.096-1.063-0.217-1.723-0.361c-1.238-0.264-2.143-0.706-2.715-1.324
					c-0.57-0.618-0.855-1.447-0.855-2.48c0-0.421,0.078-0.825,0.234-1.216c0.156-0.392,0.381-0.75,0.676-1.073
					c0.295-0.325,0.656-0.608,1.082-0.849c0.428-0.239,0.912-0.426,1.451-0.559v-1.334c0-0.133,0.049-0.246,0.145-0.343
					c0.096-0.096,0.211-0.145,0.344-0.145h2.361c0.133,0,0.246,0.049,0.344,0.145c0.096,0.097,0.143,0.21,0.143,0.343V191.967z"/>
			</g>
			<path fill="none" stroke="#A43E23" stroke-linecap="round" stroke-linejoin="round" stroke-miterlimit="10" d="M246.609,183.353
				c4.76,2.193,9.002-0.9,9.002-0.9"/>
			<path fill="none" stroke="#A43E23" stroke-linecap="round" stroke-linejoin="round" stroke-miterlimit="10" d="M252.922,183.717
				c0,0,3.557-2.008,2.496-5.187c-1.459-4.377-3.158,5.364-3.158,5.364c3.328,0,1.313,3.69,4.268,4.361"/>
			<path fill="none" stroke="#A43E23" stroke-linecap="round" stroke-linejoin="round" stroke-miterlimit="10" d="M251.664,184.013
				c0,0-4.654-0.804-4.633-4.154c0.027-4.616,5.018,4.036,5.018,4.036c-4.988,2.684-2.869,5.22-5.439,6.233"/>
		</g>
	</g>
	<g>
		<circle fill="#FFFFFF" stroke="#CFD1EA" stroke-miterlimit="10" cx="355.188" cy="96.38" r="7.15"/>
		<g>
			<path fill="#E6E7F4" d="M356.08,92.828c0.307,0.075,0.586,0.182,0.832,0.321c0.248,0.139,0.461,0.295,0.639,0.47
				c0.178,0.172,0.316,0.356,0.418,0.546s0.156,0.375,0.164,0.551c0,0.062-0.021,0.114-0.066,0.158
				c-0.043,0.044-0.094,0.066-0.148,0.066h-1.338c-0.094,0-0.172-0.012-0.229-0.04c-0.059-0.027-0.117-0.068-0.178-0.122
				c-0.021-0.021-0.055-0.055-0.098-0.103c-0.045-0.047-0.105-0.096-0.189-0.147c-0.08-0.052-0.184-0.095-0.305-0.133
				c-0.123-0.037-0.273-0.056-0.449-0.056c-0.129,0-0.256,0.008-0.373,0.024c-0.121,0.018-0.225,0.046-0.316,0.083
				c-0.094,0.038-0.168,0.09-0.225,0.158c-0.059,0.068-0.086,0.152-0.086,0.255c0,0.102,0.031,0.186,0.098,0.254
				c0.064,0.068,0.17,0.132,0.324,0.189c0.152,0.059,0.355,0.115,0.607,0.168c0.252,0.055,0.564,0.119,0.939,0.194
				c0.375,0.075,0.701,0.17,0.979,0.287c0.279,0.115,0.512,0.259,0.699,0.434c0.188,0.172,0.328,0.376,0.42,0.611
				c0.092,0.236,0.137,0.513,0.137,0.833c0,0.285-0.053,0.547-0.164,0.786c-0.107,0.238-0.26,0.448-0.457,0.633
				c-0.197,0.184-0.436,0.336-0.715,0.458c-0.281,0.123-0.586,0.211-0.92,0.266v0.726c0,0.075-0.025,0.138-0.08,0.192
				c-0.055,0.055-0.119,0.082-0.193,0.082h-1.338c-0.076,0-0.141-0.026-0.195-0.082c-0.055-0.055-0.08-0.118-0.08-0.192v-0.756
				c-0.328-0.074-0.621-0.182-0.885-0.321c-0.262-0.139-0.484-0.297-0.672-0.475c-0.188-0.177-0.332-0.368-0.434-0.577
				c-0.102-0.208-0.156-0.416-0.164-0.626c0-0.062,0.023-0.114,0.066-0.159c0.045-0.043,0.094-0.065,0.148-0.065h1.336
				c0.098,0,0.172,0.011,0.225,0.035c0.055,0.024,0.109,0.06,0.164,0.107c0.027,0.028,0.068,0.072,0.123,0.133
				c0.053,0.062,0.129,0.125,0.219,0.19c0.092,0.064,0.207,0.121,0.348,0.168c0.141,0.047,0.311,0.071,0.516,0.071
				c0.361,0,0.66-0.041,0.904-0.118c0.24-0.078,0.361-0.219,0.361-0.423c0-0.102-0.045-0.187-0.133-0.254
				c-0.09-0.069-0.221-0.132-0.398-0.19s-0.402-0.114-0.68-0.168c-0.275-0.055-0.6-0.122-0.973-0.204
				c-0.701-0.15-1.213-0.4-1.537-0.75c-0.322-0.351-0.484-0.818-0.484-1.403c0-0.238,0.045-0.468,0.133-0.689
				s0.215-0.423,0.383-0.607c0.166-0.184,0.371-0.343,0.611-0.479c0.242-0.136,0.516-0.242,0.822-0.317v-0.755
				c0-0.075,0.025-0.139,0.08-0.194c0.055-0.054,0.119-0.082,0.195-0.082h1.338c0.074,0,0.139,0.028,0.193,0.082
				c0.055,0.055,0.08,0.119,0.08,0.194V92.828z"/>
		</g>
	</g>
	<g>
		<g>
			<path fill="#292D6D" d="M158.804,196.234c0,0-25.564-2.489-27.105,4.34c-2.331,10.337,32.346,10.337,32.346,10.337l2.987-6.941
				l-14.211-5.563"/>
			<path fill="#FBCBBE" d="M158.063,212.525l-7.061-0.256c0,0-1.127-0.357-1.841-2.47c-0.714-2.115-0.424-2.305-0.424-2.305
				l8.23-0.922"/>
			<path fill="#292D6D" d="M167.032,195.351c0,0,19.55,1.184,18.727,10.071c-0.822,8.886-29.968,8.177-29.968,8.177l-2.104-8.822
				c0,0,15.062-3.305,21.442-3.305"/>
			<path fill="#292D6D" d="M165.721,194.402l14.992,7.897c0,0-11.199,6.359-21.908,3.726c-10.709-2.635-12.345-7.446-12.345-7.446
				L165.721,194.402z"/>
			<path fill="#0F113A" d="M151.486,207.089c0,0-0.081,0.381,0.143,0.604c0.224,0.223,0.701-0.113,1.217,0.401
				c0.478,0.479,0.721,2.505,0.525,2.903c-0.196,0.397-0.643,0.343-0.614,0.592c0.057,0.531,0.682,0.769,0.682,0.769
				s-1.565,0.224-3.624,0.372c-3.666,0.264-4.771,0.221-6.115,0c-1.097-0.181-2.39-2.218-0.993-3.615
				c2.098-2.097,6.684-1.956,6.684-1.956L151.486,207.089"/>
			<path fill="none" stroke="#394EA2" stroke-width="0.75" stroke-miterlimit="10" d="M154.008,206.126
				c0,0,13.438-5.092,21.12-5.593"/>
			<path fill="none" stroke="#394EA2" stroke-width="0.75" stroke-miterlimit="10" d="M156.841,205.107
				c0,0-10.153-6.055-16.673-6.528"/>
		</g>
		<g>
			<path fill="#FBCBBE" d="M160.982,162.688c0,0-1.776,4.607-0.317,6.149c0.759,0.8,3.044,0.986,4.035,0.229
				c0.735-0.561,1.882-4.108,1.485-4.742C164.671,161.9,160.982,162.688,160.982,162.688z"/>
			<path fill="#FBCBBE" d="M166.765,167.231l0.324,5.016c0,0-3.214,2.521-5.849-0.308l0.559-3.265L166.765,167.231z"/>
			<g>
				<path fill="#0F113A" d="M167.947,166.281c0.232-1.049,0.901-2.751,0.266-3.415c-0.24-0.25-0.56-0.413-0.794-0.668
					c-0.232-0.251-0.368-0.575-0.523-0.882c-0.269-0.531-0.619-1.036-1.109-1.371c-0.489-0.339-1.136-0.483-1.692-0.273
					c-0.206,0.076-0.396,0.199-0.611,0.239c-0.254,0.046-0.512-0.027-0.765-0.08c-0.673-0.135-1.38-0.103-2.038,0.095
					c-0.788,0.237-1.546,0.771-1.776,1.561c-0.23,0.788,0.296,1.789,1.117,1.827c0.39,0.018,0.822-0.159,1.146,0.06
					c0.108,0.071,0.186,0.18,0.274,0.274c0.397,0.423,1.06,0.572,1.599,0.357c0.695-0.274,1.041-0.401,1.161,0.443
					c0.088,0.611,0.535,1.159,1.118,1.365c0.346,0.123,0.742,0.139,1.03,0.368c0.298,0.236,0.399,0.687,0.233,1.027
					c-0.062,0.127-0.157,0.239-0.199,0.375c-0.116,0.376,0.203,0.734,0.493,0.998C167.72,167.534,167.798,166.953,167.947,166.281z"
					/>
			</g>
			<path fill="#FBCBBE" d="M165.814,166.334c0.46-0.71,0.892-0.644,1.156-0.303c0.353,0.455-0.168,1.519-0.439,1.717
				c-0.549,0.403-1.023,0.41-1.112-0.058"/>
			<path fill="none" stroke="#E88872" stroke-width="0.75" stroke-linejoin="round" stroke-miterlimit="10" d="M161.64,169.595
				c1.733,0.412,3.235-0.709,3.235-0.709"/>
		</g>
		<g>
			<path fill="#F04F47" d="M155.77,173.131c0,0-4.191,1.056-5.784,7.95c-0.923,3.998-1.964,8.056-1.964,8.056
				s-6.749,0.753-8.954,1.433l0.826,3.833c0,0,13.028,1.144,15.897-1.727c2.869-2.869,1.695-10.466,1.695-10.466"/>
			<path fill="#FFFFFF" d="M163.005,172.979l4.766-0.64l1.084,0.237c0,0-8.373,23.616-8.557,23.616
				c-0.185,0-3.101-0.479-3.101-0.479l2.172-23.269l1.02-0.406L163.005,172.979z"/>
			<g>
				<path fill="#292D6D" d="M162.602,174.187l-0.45,1.108c0,0-3.624,7.123-3.624,8.82c0,1.698-0.583,11.746-0.443,11.746
					s2.61,0.296,2.61,0.296l2.563-10.677l0.118-10.186"/>
				<path fill="#292D6D" d="M161.78,173.149c-0.169,0.169,0.172,1.946,0.372,2.146c0.199,0.199,1.038,0.186,1.224,0
					c0.186-0.187,1.091-1.85,0.796-2.146C163.875,172.854,162.054,172.875,161.78,173.149z"/>
			</g>
			<path fill="#F04F47" d="M159.833,189.379c4.324-11.539,9.133-16.802,9.133-16.802s5.205,0.491,6.676,3.072
				c1.842,3.23-0.337,7.761-0.791,14.185c-0.453,6.422-0.976,4.784-0.976,4.784s-6.437,2.453-12.142,2.453
				c0,0-6.608-0.198-8.307-0.878c0,0,0-5.188,0-9.242c0-4.054-1.023-10.559,1.054-13.09c0.912-1.11,4.997-1.416,4.997-1.416
				L159.833,189.379z"/>
			<g>
				<path fill="#8790C7" d="M138.057,196.624h19.667l-1.539-11.766c-0.049-0.379-0.372-0.661-0.754-0.661h-18.177
					c-0.436,0-0.772,0.381-0.716,0.814L138.057,196.624z"/>
				<path fill="#B9C0E2" d="M144.968,190.322c0.052,0.744,0.697,1.348,1.441,1.348c0.744,0,1.305-0.604,1.253-1.348
					c-0.052-0.743-0.697-1.347-1.441-1.347C145.477,188.976,144.916,189.579,144.968,190.322z"/>
			</g>
			<polygon fill="#FFFFFF" points="167.018,171.145 163.137,172.727 161.375,171.145 160.388,172.039 161.119,174.396 
				163.091,173.102 164.357,175.115 167.771,172.34 			"/>
			<path fill="none" stroke="#A62928" stroke-width="0.75" stroke-miterlimit="10" d="M170.088,172.936
				c-1.708,4.853-2.004,8.701-2.004,8.701h-2.146l1.151,1.851c0,0-4.49,2.305-7.303,9.188"/>
			<path fill="none" stroke="#A62928" stroke-width="0.75" stroke-miterlimit="10" d="M158.063,172.777
				c-0.287,3.136-1.564,6.309-1.564,6.309l1.35,0.975l-1.681,0.951c0,0,3.083,7.594,2.58,11.664"/>
			<polyline fill="none" stroke="#F7A4A4" stroke-width="0.75" stroke-miterlimit="10" points="167.838,172.445 164.402,175.317 
				163.091,173.102 161.11,174.545 160.26,172.09 			"/>
			<g>
				<g>
					<g>
						<path fill="#FBCBBE" d="M156.54,194.798c-0.847-0.057-4.68-0.249-4.682-0.02c-0.002,0.22,1.263,0.486,1.197,0.596
							c-0.094,0.155-1.079,0.152-1.63,0.101c-0.492-0.046-1.29-0.04-1.337,0.171c-0.091,0.403,2.611,0.623,2.611,0.623
							c-0.027,0.121-2.862-0.78-2.972-0.451c-0.161,0.474,2.899,1.186,2.981,1.316c0,0-2.482-1.353-2.6-1.002
							c-0.119,0.351,2.067,1.613,2.807,1.742c-0.587-0.22-2.22-1.497-2.307-1.242c-0.086,0.256,1.388,1.184,1.639,1.265
							c2.06,0.672,4.075,0.683,4.075,0.683"/>
					</g>
				</g>
			</g>
			<polygon fill="#FFFFFF" points="157.376,194.402 155.791,194.585 156.415,199.741 158.601,199.637 			"/>
			<path fill="#F04F47" d="M169.21,182.221c0,6.502-0.356,9.293-0.356,9.293s-5.665,1.987-12.456,2.69
				c0.397,2.564,0.798,5.831,0.798,5.831s13.355-0.958,17.181-3.644c4.133-2.903,4.59-19.899-0.225-22.205"/>
			<path fill="none" stroke="#A62928" stroke-width="0.75" stroke-miterlimit="10" d="M157.576,193.932
				c10.317-1.655,11.743-2.418,11.743-2.418s0.769-6.341,0.469-9.986"/>
		</g>
	</g>
	<g>
		<g>
			<path fill="#FBCBBE" d="M99.581,117.104l-1.047,5.266c0,0,2.949,2.986,6.038,0.206l-0.035-3.53L99.581,117.104z"/>
			<path fill="#FBCBBE" d="M104.499,112.171c0,0,3.105,4.747,1.548,6.413c-0.811,0.864-3.71,1.647-4.78,0.84
				c-0.793-0.6-2.047-4.404-1.625-5.088C101.254,111.722,104.499,112.171,104.499,112.171z"/>
			<g>
				<path fill="#0F113A" d="M99.055,112.518c0.27-1.787,2.088-2.157,5.471-1.653c0.453,0.067,1.291-0.17,1.465,0.253
					c0.229,0.557,0.184,1.637-0.394,2.074c-0.385,0.292-0.629,0.34-1.108,0.408c-0.629,0.09-1.308,0.621-1.038,1.295
					c0.071,0.177,0.25,0.48,0.108,0.609c-0.071,0.064-0.298,0.123-0.387,0.161c-0.256,0.11-0.273,0.483-0.142,0.728
					c0.132,0.246,0.042,0.498,0.174,0.741c0.315,0.581-0.205,1.553-0.8,1.838c-0.527,0.251-2.211,0.601-3.358-0.129
					c-0.995-0.631-1.49-2.157-1.265-4.801C97.869,113.028,98.683,112.415,99.055,112.518z"/>
			</g>
			<path fill="#FBCBBE" d="M103.811,115.674c-0.498-0.759-0.961-0.687-1.244-0.319c-0.376,0.491,0.191,1.63,0.482,1.843
				c0.592,0.43,1.102,0.435,1.194-0.068"/>
			<path fill="none" stroke="#E88872" stroke-width="0.5" stroke-linejoin="round" stroke-miterlimit="10" d="M104.485,119.437
				c-0.754-0.253-1.02-1.191-1.02-1.191"/>
		</g>
		<g>
			<g>
				<polyline fill="#FBCBBE" points="96.073,206.01 94.398,213.07 100.277,215.328 87.939,213.747 88.995,205.277 				"/>
				<path fill="#0F113A" d="M94.744,211.669c0.374,0.127,0.103,0.384,0.728,1.136c0.625,0.753,4.323,2.206,6.066,2.73
					c1.687,0.507,1.321,1.962,0.747,1.962c0,0-8.399,0-9.064,0c-0.667,0-1.15-0.539-1.666-0.539c-0.14,0-0.428-0.097-0.509,0.002
					c-0.127,0.158-0.114,0.537-0.114,0.537h-3.074c-0.345,0-0.548-0.221-0.524-0.479l0.331-4.361c0,0,3.753,0.51,4.81,0.201
					c0.427-0.125-0.02-0.451,0.158-0.631C92.812,212.048,94.371,211.54,94.744,211.669z"/>
			</g>
			<path fill="#272762" d="M90.769,157.588c0.457,16.327-3.165,51.598-3.165,51.598l10.011-0.043c0,0,5.566-24.193,6.938-36.366
				c0.818-7.252,1.152-15.432,1.284-21.603"/>
			<path fill="none" stroke="#394EA2" stroke-width="0.5" stroke-linejoin="round" stroke-miterlimit="10" d="M103.29,173.112
				c-1.565,12.032-7.567,35.835-7.567,35.835"/>
			<g>
				<polyline fill="#FBCBBE" points="112.69,205.755 113.055,213.07 118.934,215.328 106.596,213.747 105.987,205.277 				"/>
				<path fill="#0F113A" d="M113.401,211.669c0.373,0.127,0.102,0.384,0.727,1.136c0.625,0.753,4.322,2.206,6.066,2.73
					c1.687,0.507,1.322,1.962,0.747,1.962c0,0-8.399,0-9.065,0c-0.666,0-1.15-0.539-1.665-0.539c-0.141,0-0.429-0.097-0.51,0.002
					c-0.126,0.158-0.115,0.537-0.115,0.537h-3.074c-0.345,0-0.547-0.221-0.524-0.479l0.331-4.361c0,0,3.754,0.51,4.811,0.201
					c0.427-0.125-0.021-0.451,0.159-0.631C111.468,212.048,113.027,211.54,113.401,211.669z"/>
			</g>
			<path fill="#272762" d="M113.508,158.366c0,0,1.266,18.283,1.266,27.058c0,8.775,0.564,24.652,0.564,24.652h-10.115
				c0,0-2.507-26.969-8.164-45.707c-2.024-6.705-2.298-9.723-1.415-13.435l12.596-3.261L113.508,158.366z"/>
			<path fill="none" stroke="#394EA2" stroke-width="0.5" stroke-linejoin="round" stroke-miterlimit="10" d="M109.521,157.845
				c3.625,24.557,4.327,52.271,4.327,52.271"/>
			<path fill="none" stroke="#394EA2" stroke-width="0.5" stroke-linejoin="round" stroke-miterlimit="10" d="M95.372,159.133
				c0.788,4.55,2.642,7.34,3.664,9.193c1.511,6.117,1.817,10.661,3.075,18.643"/>
			<path fill="none" stroke="#394EA2" stroke-width="0.5" stroke-linejoin="round" stroke-miterlimit="10" d="M103.091,161.354
				c-3.041,0.583-5.847,0.117-5.847,0.117"/>
			<path fill="none" stroke="#394EA2" stroke-width="0.5" stroke-linejoin="round" stroke-miterlimit="10" d="M93.076,161.169
				c-0.996,0.187-2.223-0.047-2.223-0.047"/>
		</g>
		<g>
			<path fill="#FBCBBE" d="M110.737,122.975c0,0-0.589-2.085-1.854-3.051c-0.664-0.507-0.803-0.306-1.131-0.499
				c-0.541-0.321-0.849-0.214-1.077,0.084c-0.145,0.19-0.551,0.067-0.763,0.222c-0.337,0.249-0.103,0.607-0.33,0.716
				c-1.001,0.474,0.109,1.425,0.109,1.425s-0.224-0.513-0.637-0.294c-0.269,0.143,0.76,1.608,1.489,2.584
				c0.373,0.5,0.667,0.87,0.667,0.87"/>
			<path fill="#FFFFFF" d="M111.062,122.131c-0.085-0.086-0.918-1.217-0.918-1.217L106.828,124l1.047,0.664"/>
			<polyline fill="#FFFFFF" points="107.533,125.638 106.495,124.667 110.632,121.26 111.586,122.681 			"/>
			<path fill="#5466AF" d="M99.036,122.2c-1.798-0.298-4.027-0.176-5.576,0.589c-6.515,3.217-10.097,14.193-10.267,16.801
				c-0.441,6.768,7.402,18.027,7.402,18.027l4.518-2.136c0,0-4.842-11.494-3.535-15.215c1.308-3.72,7.441-10.354,7.441-10.354"/>
			<path fill="#5466AF" d="M98.595,122.229c0,0-5.449,1.199-7.517,9.048c-0.933,3.54,0.073,9.221-0.146,14.106
				c-0.338,7.496-1.387,13.719-1.386,13.703c10.068,2.036,24.563-0.161,24.563-0.161s-1.044-7.996-1.437-13.096
				c-0.448-5.823-0.348-6.857-0.348-11.641c0-10.468-7.413-11.21-7.413-11.21L98.595,122.229z"/>
			<path fill="#5466AF" d="M97.887,122.282c0,0,0.537-1.342,0.646-1.368c1.342-0.317,5.23-0.179,6.258,0.849
				c0.416,0.415,0.221,0.974,0.312,1.686"/>
			<path fill="none" stroke="#33479D" stroke-width="0.5" stroke-miterlimit="10" d="M90.11,156.187
				c1.177-8.092,0.744-23.833,0.744-23.833"/>
			<path fill="#5466AF" d="M105.252,130.847c0,0,3.371,13.81,11.113,13.751c7.322-0.057,5.348-12.323-5.668-23.338l-6.723,5.633"/>
			<path fill="none" stroke="#33479D" stroke-width="0.5" stroke-miterlimit="10" d="M112.42,143.109
				c-2.273-1.893-4.545-5.126-4.545-5.126"/>
			<path fill="none" stroke="#33479D" stroke-width="0.5" stroke-miterlimit="10" d="M107.875,124.124
				c6.233,4.663,9.438,11.722,9.438,11.722"/>
		</g>
	</g>
	<g>
		<g>
			<g>
				<path fill="#FBCBBE" d="M251.002,82.921c-0.178,1.59-1.5,6.121-1.211,6.307c0.287,0.188,0.773-1.401,0.98-1.207
					c0.205,0.195-0.367,2.686-0.027,2.801c0.463,0.155,0.902-2.425,0.902-2.425s-0.332,2.848,0.109,2.875
					c0.314,0.019,0.674-2.144,0.924-2.955c-0.15,0.91-0.207,2.413,0.119,2.425c0.324,0.013,0.602-1.454,0.879-2.568
					c-0.104,0.711-0.217,2.012,0.084,2.039c0.299,0.024,1.242-3.501,1.992-6.851"/>
			</g>
			<path fill="#FBCBBE" d="M258.379,60.149c1.277,11.085-3.219,25.732-3.219,25.732l-4.465-0.959c0,0,1.818-12.72-0.229-23.896"/>
		</g>
		<path fill="#F04F47" d="M253.941,51.163c4.25,2.981,4.588,9.319,4.588,9.319l-8.109,1.528c0,0-0.402-4.934-0.461-6.623"/>
		<path fill="none" stroke="#D62237" stroke-width="0.75" stroke-miterlimit="10" d="M250.143,62.01
			c-0.238-2.266-0.938-4.298-0.938-4.298"/>
		<path fill="none" stroke="#D62237" stroke-width="0.75" stroke-miterlimit="10" d="M258.893,60.4
			c-0.236-2.264-0.598-4.104-0.598-4.104"/>
	</g>
	<g>
		<circle fill="#F04F47" cx="117.963" cy="76.826" r="18.168"/>
		<circle fill="#FFFFFF" cx="117.962" cy="76.826" r="13.144"/>
		<circle fill="#F04F47" cx="117.963" cy="76.826" r="9.028"/>
		<circle fill="#FFFFFF" cx="117.963" cy="76.826" r="4.729"/>
		<g>
			<g>
				<polygon fill="#2D439B" points="118.695,77.559 115.725,77.559 118.695,74.589 				"/>
			</g>
			<g>
				<polygon fill="#2D439B" points="99.438,58.302 96.04,58.302 96.04,57.446 98.582,57.446 98.582,54.904 99.438,54.904 				"/>
			</g>
			<g>
				<polygon fill="#2D439B" points="97.883,56.747 94.485,56.747 94.485,55.889 97.027,55.889 97.027,53.349 97.883,53.349 				"/>
			</g>
			<g>
				
					<rect x="93.058" y="66.022" transform="matrix(0.7071 0.7071 -0.7071 0.7071 78.4951 -56.6117)" fill="#2D439B" width="29.059" height="0.857"/>
			</g>
		</g>
	</g>
	<g>
		<g>
			<line fill="none" stroke="#2D439B" stroke-miterlimit="10" x1="291.838" y1="217.497" x2="286.176" y2="141.788"/>
			<polyline fill="none" stroke="#2D439B" stroke-miterlimit="10" points="314.818,217.497 309.156,141.788 286.176,141.788 			"/>
			<line fill="none" stroke="#2D439B" stroke-miterlimit="10" x1="303.494" y1="217.497" x2="309.156" y2="141.788"/>
			<polyline fill="none" stroke="#2D439B" stroke-miterlimit="10" points="280.516,217.497 286.176,141.788 309.156,141.788 			"/>
			<line fill="none" stroke="#2D439B" stroke-miterlimit="10" x1="313.914" y1="206.772" x2="281.316" y2="206.772"/>
			<line fill="none" stroke="#2D439B" stroke-miterlimit="10" x1="313.178" y1="197.501" x2="282.01" y2="197.501"/>
			<line fill="none" stroke="#2D439B" stroke-miterlimit="10" x1="312.268" y1="187.977" x2="282.723" y2="187.977"/>
			<line fill="none" stroke="#2D439B" stroke-miterlimit="10" x1="311.359" y1="178.897" x2="283.402" y2="178.897"/>
			<line fill="none" stroke="#2D439B" stroke-miterlimit="10" x1="310.791" y1="169.413" x2="284.08" y2="169.413"/>
			<line fill="none" stroke="#2D439B" stroke-miterlimit="10" x1="310.223" y1="160.015" x2="284.789" y2="160.015"/>
			<line fill="none" stroke="#2D439B" stroke-miterlimit="10" x1="309.695" y1="151.138" x2="285.477" y2="151.138"/>
		</g>
		<g>
			<g>
				<path fill="#FBCBBE" d="M307.508,107.755l1.182,5.238c0,0-2.873,3.059-6.031,0.36l-0.053-3.532L307.508,107.755z"/>
				<path fill="#FBCBBE" d="M300.801,103.17c0,0-1.404,5.496,0.607,6.568c1.047,0.558,4.045,0.361,4.795-0.748
					c0.559-0.823,0.516-4.829-0.104-5.34C303.729,101.697,300.801,103.17,300.801,103.17z"/>
				<g>
					<path fill="#F04F47" d="M306.887,101.582c-0.832-1.604-2.684-1.282-5.484-0.161c-1.078,0.433-2.252,0.034-2.359,0.479
						c-0.297,1.256,0.363,2.363,1.049,2.591c0.461,0.151,1.209,0.13,1.664-0.027c1.213-0.415,2.23,0.162,2.191,0.887
						c-0.01,0.19-0.078,0.537,0.096,0.613c0.088,0.038,0.32,0.02,0.416,0.027c0.279,0.02,0.416,0.37,0.371,0.644
						c-0.047,0.274,0.59,0.217,0.543,0.491c-0.109,0.65,1.145,1.476,1.799,1.554c0.58,0.068,0.838-0.383,1.123-1.178
						C308.693,106.393,309.387,101.495,306.887,101.582z"/>
				</g>
				<path fill="#FBCBBE" d="M304.227,106.144c0.225-0.881,0.689-0.961,1.074-0.704c0.516,0.344,0.348,1.606,0.139,1.9
					c-0.422,0.597-0.902,0.767-1.152,0.32"/>
				<path fill="none" stroke="#E88872" stroke-width="0.75" stroke-linejoin="round" stroke-miterlimit="10" d="M302.607,110.139
					c1.1,0.025,2.068-1.114,2.068-1.114"/>
			</g>
			<g>
				<g>
					<polyline fill="#FBCBBE" points="324.861,189.688 330.561,194.177 327.359,199.601 336.043,190.691 329.951,184.712 					"/>
					<path fill="#0F113A" d="M329.418,193.293c-0.211,0.332,0.162,0.365,0.141,1.344c-0.023,0.977-2.016,4.414-3.057,5.907
						c-1.004,1.446,0.184,2.358,0.633,2.002c0,0,6.58-5.222,7.104-5.636c0.52-0.413,0.566-1.136,0.969-1.457
						c0.109-0.087,0.273-0.343,0.4-0.313c0.197,0.043,0.422,0.349,0.422,0.349l2.408-1.91c0.271-0.217,0.291-0.515,0.113-0.701
						l-2.969-3.212c0,0-2.625,2.732-3.645,3.147c-0.412,0.169-0.266-0.366-0.518-0.395
						C331.17,192.389,329.633,192.961,329.418,193.293z"/>
				</g>
				<path fill="#5466AF" d="M320.656,146.527c0,5.438-0.09,13.827,1.223,22.475c0.516,3.416,12.234,18.672,12.234,18.672
					l-6.961,6.544c0,0-20.176-17.849-19.676-30.813c0.541-13.994-1.961-32.936-1.961-32.936"/>
				<g>
					<polyline fill="#FBCBBE" points="301.271,194.218 301.922,202.009 296.043,204.267 308.383,202.688 308.359,194.218 					"/>
					<path fill="#0F113A" d="M301.578,200.608c-0.375,0.127-0.104,0.384-0.729,1.136s-4.322,2.206-6.066,2.73
						c-1.688,0.507-1.32,1.962-0.748,1.962c0,0,8.4,0,9.064,0c0.668,0,1.152-0.539,1.666-0.539c0.141,0,0.43-0.097,0.51,0.002
						c0.127,0.157,0.115,0.537,0.115,0.537h3.074c0.344,0,0.547-0.223,0.523-0.479l-0.33-4.361c0,0-3.754,0.509-4.811,0.201
						c-0.428-0.126,0.021-0.451-0.158-0.631C303.51,200.987,301.951,200.479,301.578,200.608z"/>
				</g>
				<path fill="#5466AF" d="M297.916,147.305c0,0-1.266,18.283-1.266,27.059s2.48,24.651,2.48,24.651h10.115
					c0,0-0.539-26.969,5.119-45.708c2.023-6.703,2.297-9.722,1.414-13.435l-12.596-3.259L297.916,147.305z"/>
				<path fill="none" stroke="#33479D" stroke-width="0.75" stroke-miterlimit="10" d="M301.174,146.784
					c-3.83,22.713-0.055,52.23-0.055,52.23"/>
				<path fill="none" stroke="#33479D" stroke-width="0.75" stroke-miterlimit="10" d="M316.273,149.204
					c-0.018,2.821-0.838,4.17-3.01,6.346c-1.559,6.564-1.752,12.504-2.789,18.395"/>
				<path fill="none" stroke="#33479D" stroke-width="0.75" stroke-miterlimit="10" d="M311.273,169.497
					c5.824,11.789,17.082,23.083,17.082,23.083"/>
				<path fill="none" stroke="#33479D" stroke-width="0.75" stroke-miterlimit="10" d="M308.332,150.293
					c3.041,0.585,5.85,0.116,5.85,0.116"/>
				<path fill="none" stroke="#33479D" stroke-width="0.75" stroke-miterlimit="10" d="M318.348,150.108
					c0.994,0.187,2.223-0.047,2.223-0.047"/>
			</g>
			<path fill="#292D6D" d="M301.871,112.85c0,0,0.34-1.427,0.51-1.598c1.887-1.113,4.818-1.464,5.785-1.464l0.605,1.905"/>
			<g>
				<g>
					<path fill="#FBCBBE" d="M276.766,125.899c-1.654,0.078-6.488-0.486-6.639-0.182c-0.148,0.305,1.549,0.526,1.379,0.753
						c-0.168,0.228-2.805,0.064-2.873,0.408c-0.09,0.467,2.617,0.488,2.617,0.488s-2.967,0.125-2.93,0.552
						c0.025,0.304,2.295,0.313,3.16,0.427c-0.953-0.003-2.502,0.176-2.469,0.49c0.035,0.311,1.578,0.35,2.76,0.443
						c-0.742,0.012-2.092,0.104-2.074,0.396c0.018,0.29,3.766,0.649,7.307,0.847"/>
				</g>
				<polyline fill="#FFFFFF" points="276.029,130.9 274.162,130.82 274.635,125.53 276.631,125.487 				"/>
				<path fill="#292D6D" d="M304.502,111.287c0.178-0.036,2.211-0.322,2.412-0.334c2.111-0.121,5.746,1.297,8.475,8.038
					c3.502,8.659,5.832,28.132,5.832,28.132s-14.768,2.815-25.162,1.888C295.313,135.438,292.023,113.846,304.502,111.287z"/>
				<path fill="none" stroke="#394EA2" stroke-width="0.75" stroke-linejoin="round" stroke-miterlimit="10" d="M298.971,128.217
					c0,0,2.674,9.24,3.242,20.933"/>
				<path fill="#292D6D" d="M306.146,111.13c0,0-5.309,0.188-9.359,4.381c-2.67,2.759-4.678,6.115-6.666,7.703
					c-2.264,1.808-14.633,2.047-14.633,2.047l0.084,6.071c0,0,12.041,1.617,16.086,0.378c4.041-1.237,8.666-4.787,8.666-4.787"/>
				<path fill="none" stroke="#394EA2" stroke-width="0.75" stroke-linejoin="round" stroke-miterlimit="10" d="M295.709,130.168
					c2.225-1.006,4.525-2.908,4.525-2.908"/>
			</g>
		</g>
	</g>
</g>
</svg>
